<svg width="32" height="32" viewBox="0 0 32 32" fill="none" xmlns="http://www.w3.org/2000/svg">
<path d="M26.7222 4H6.27778C5.93889 4 5.61388 4.13462 5.37425 4.37425C5.13462 4.61388 5 4.93889 5 5.27778V25.7222C5 26.0611 5.13462 26.3861 5.37425 26.6257C5.61388 26.8654 5.93889 27 6.27778 27H17.2858V18.1067H14.2984V14.6247H17.2858V12.0692C17.2858 9.09833 19.1003 7.47939 21.7581 7.47939C22.6512 7.47683 23.5457 7.52283 24.435 7.61611V10.7083H22.6014C21.1601 10.7083 20.8789 11.3958 20.8789 12.4014V14.6183H24.3251L23.8779 18.1003H20.8777V27H26.7222C27.0611 27 27.3861 26.8654 27.6257 26.6257C27.8654 26.3861 28 26.0611 28 25.7222V5.27778C28 4.93889 27.8654 4.61388 27.6257 4.37425C27.3861 4.13462 27.0611 4 26.7222 4Z" fill="#4167B0"/>
</svg>
