<svg width="32" height="32" viewBox="0 0 32 32" fill="none" xmlns="http://www.w3.org/2000/svg">
<path d="M27.9227 11.0955C27.9093 10.0861 27.7203 9.08677 27.3643 8.14216C27.0556 7.34538 26.584 6.62177 25.9798 6.01754C25.3756 5.41332 24.652 4.94178 23.8552 4.63305C22.9227 4.28302 21.9376 4.09375 20.9418 4.0733C19.6597 4.01599 19.2532 4 15.9987 4C12.7441 4 12.327 4 11.0542 4.0733C10.0589 4.0939 9.07421 4.28316 8.14216 4.63305C7.34526 4.94157 6.62153 5.41303 6.01728 6.01728C5.41303 6.62153 4.94157 7.34526 4.63305 8.14216C4.28232 9.07392 4.09346 10.0588 4.07463 11.0542C4.01733 12.3376 4 12.7441 4 15.9987C4 19.2532 4 19.669 4.07463 20.9431C4.09462 21.94 4.28254 22.9236 4.63305 23.8578C4.94208 24.6545 5.4139 25.3779 6.01835 25.9819C6.6228 26.5859 7.3466 27.0572 8.14349 27.3656C9.07299 27.7297 10.0578 27.9325 11.0555 27.9653C12.339 28.0227 12.7454 28.04 16 28.04C19.2546 28.04 19.6717 28.04 20.9445 27.9653C21.9402 27.9457 22.9254 27.7569 23.8578 27.4069C24.6544 27.0978 25.3778 26.6262 25.982 26.022C26.5862 25.4178 27.0579 24.6944 27.3669 23.8978C27.7175 22.9649 27.9054 21.9813 27.9254 20.9831C27.9827 19.701 28 19.2945 28 16.0386C27.9973 12.7841 27.9973 12.3709 27.9227 11.0955ZM15.9907 22.1533C12.5869 22.1533 9.82941 19.3958 9.82941 15.992C9.82941 12.5882 12.5869 9.83074 15.9907 9.83074C17.6247 9.83074 19.1919 10.4799 20.3473 11.6353C21.5028 12.7908 22.1519 14.3579 22.1519 15.992C22.1519 17.6261 21.5028 19.1932 20.3473 20.3487C19.1919 21.5041 17.6247 22.1533 15.9907 22.1533ZM22.3972 11.0395C22.2084 11.0397 22.0215 11.0027 21.8472 10.9305C21.6728 10.8584 21.5143 10.7526 21.3809 10.6191C21.2474 10.4857 21.1416 10.3272 21.0695 10.1528C20.9973 9.97846 20.9603 9.79156 20.9605 9.60284C20.9605 9.41426 20.9976 9.22753 21.0698 9.0533C21.1419 8.87907 21.2477 8.72077 21.3811 8.58742C21.5144 8.45407 21.6727 8.34829 21.8469 8.27613C22.0212 8.20396 22.2079 8.16681 22.3965 8.16681C22.5851 8.16681 22.7718 8.20396 22.946 8.27613C23.1203 8.34829 23.2786 8.45407 23.4119 8.58742C23.5453 8.72077 23.651 8.87907 23.7232 9.0533C23.7954 9.22753 23.8325 9.41426 23.8325 9.60284C23.8325 10.3972 23.1901 11.0395 22.3972 11.0395Z" fill="#4167B0"/>
<path d="M15.9903 19.9937C18.2006 19.9937 19.9925 18.2018 19.9925 15.9915C19.9925 13.7811 18.2006 11.9893 15.9903 11.9893C13.7799 11.9893 11.988 13.7811 11.988 15.9915C11.988 18.2018 13.7799 19.9937 15.9903 19.9937Z" fill="#4167B0"/>
</svg>
