<svg width="32" height="32" viewBox="0 0 32 32" fill="none" xmlns="http://www.w3.org/2000/svg">
<path fill-rule="evenodd" clip-rule="evenodd" d="M24.5031 7.48822C23.3961 6.37922 22.079 5.49986 20.6281 4.9011C19.1771 4.30233 17.6213 3.99607 16.0506 4.00004C9.46422 4.00004 4.1025 9.33498 4.09983 15.8927C4.09983 17.9885 4.64958 20.034 5.69451 21.8384L4 28L10.3348 26.3453C12.087 27.2947 14.0502 27.7925 16.0452 27.7933H16.0506C22.6356 27.7933 27.9973 22.4584 27.9999 15.9007C28.0045 14.338 27.6978 12.79 27.0976 11.3461C26.4974 9.90216 25.6156 8.59094 24.5031 7.48822ZM16.0506 25.7863H16.0466C14.2676 25.7865 12.5213 25.3101 10.991 24.4072L10.6289 24.1925L6.86988 25.1742L7.8722 21.5271L7.6366 21.1535C6.64197 19.5775 6.11545 17.7538 6.1178 15.8927C6.12046 10.4425 10.5757 6.00843 16.0545 6.00843C17.3594 6.00554 18.6518 6.26024 19.8571 6.7578C21.0623 7.25535 22.1565 7.98587 23.0762 8.90707C24.0008 9.82389 24.7337 10.914 25.2324 12.1144C25.7312 13.3148 25.9859 14.6017 25.982 15.9007C25.9793 21.3509 21.5241 25.7863 16.0506 25.7863ZM21.4988 18.382C21.1993 18.2323 19.7324 17.5143 19.4582 17.4149C19.1853 17.3155 18.987 17.2665 18.7873 17.5633C18.5877 17.86 18.0153 18.5291 17.8409 18.7278C17.6665 18.9265 17.4922 18.9503 17.194 18.802C16.8958 18.6536 15.9334 18.3396 14.7927 17.3275C13.9048 16.5392 13.3058 15.5668 13.1314 15.2687C12.9571 14.9707 13.1128 14.8104 13.2632 14.662C13.3977 14.5295 13.5614 14.3149 13.7105 14.1413C13.8595 13.9678 13.9088 13.8446 14.0086 13.6459C14.1085 13.4471 14.0592 13.2736 13.9833 13.1252C13.9088 12.9755 13.3111 11.5129 13.0622 10.9181C12.8213 10.3418 12.575 10.4187 12.3913 10.4107C12.2011 10.403 12.0107 10.3994 11.8203 10.4001C11.6689 10.404 11.5199 10.4389 11.3827 10.5027C11.2455 10.5666 11.123 10.6579 11.0229 10.7711C10.7487 11.0691 9.97802 11.7872 9.97802 13.2497C9.97802 14.7123 11.0482 16.1259 11.1973 16.3246C11.3464 16.5233 13.3031 19.524 16.2981 20.8117C17.0116 21.1177 17.568 21.3005 18.0006 21.4383C18.7154 21.6648 19.3664 21.6317 19.8815 21.5562C20.4552 21.4714 21.6479 20.8382 21.8968 20.144C22.1457 19.4498 22.1457 18.855 22.0712 18.7304C21.9966 18.6059 21.7956 18.5304 21.4988 18.382Z" fill="#4167B0"/>
</svg>
