<svg width="33" height="32" viewBox="0 0 33 32" fill="none" xmlns="http://www.w3.org/2000/svg">
<path d="M31.349 7.61612C31.1669 6.92245 30.811 6.28984 30.3167 5.78126C29.8225 5.27268 29.2071 4.90586 28.5318 4.71733C26.028 4.0115 16.0111 4.00001 16.0111 4.00001C16.0111 4.00001 5.99576 3.98852 3.49033 4.66316C2.81549 4.86037 2.20136 5.23237 1.7069 5.74345C1.21244 6.25453 0.854255 6.88752 0.666731 7.58165C0.00639811 10.1522 2.34257e-06 15.4836 2.34257e-06 15.4836C2.34257e-06 15.4836 -0.00639311 20.8413 0.649143 23.3855C1.01688 24.7922 2.09612 25.9035 3.46795 26.2827C5.99736 26.9885 15.9871 27 15.9871 27C15.9871 27 26.004 27.0115 28.5078 26.3385C29.1833 26.1503 29.7993 25.7843 30.2948 25.2768C30.7903 24.7692 31.1482 24.1377 31.333 23.4446C31.995 20.8757 31.9998 15.546 31.9998 15.546C31.9998 15.546 32.0317 10.1866 31.349 7.61612ZM12.8069 20.4227L12.8149 10.574L21.1402 15.5066L12.8069 20.4227Z" fill="#4167B0"/>
</svg>
