<svg width="167" height="86" viewBox="0 0 167 86" fill="none" xmlns="http://www.w3.org/2000/svg">
<g clip-path="url(#clip0_1645_224)">
<path d="M124.849 86V85.5376C124.849 65.6559 110.876 48.7796 92.0909 44.8495C100.796 41.3817 106.752 33.0591 106.752 23.1183C106.981 10.4032 96.6725 0 83.8439 0C71.0154 0 60.7068 10.4032 60.7068 23.3495C60.7068 33.2903 66.892 41.6129 75.368 45.0806C56.8124 49.0108 42.6094 65.6559 42.6094 85.7688V86H124.849Z" fill="#7CAADF"/>
<path d="M167 75.1348C167 60.1079 156.462 47.624 142.488 44.6186C148.903 42.0756 153.484 35.8337 153.484 28.2047C153.484 18.495 145.696 10.6348 136.074 10.6348C126.453 10.6348 118.664 18.495 118.664 28.2047C118.664 35.6025 123.246 42.0756 129.66 44.6186C125.307 45.5434 121.184 47.3928 117.519 50.167C124.391 57.7961 129.66 66.1186 132.409 75.3659L167 75.1348Z" fill="#7CAADF"/>
<path d="M50.1687 50.8606C46.5034 47.8552 41.9218 45.5434 37.1111 44.6186C43.5254 42.0756 48.107 35.8337 48.107 28.2047C48.107 18.495 40.3182 10.6348 30.6968 10.6348C21.0754 10.6348 13.2867 18.495 13.2867 28.2047C13.2867 35.6025 17.8683 42.0756 24.2826 44.6186C10.5377 47.3928 0 60.1079 0 75.1348V75.3659H36.1948C38.2565 65.8874 43.2963 57.5649 50.1687 50.8606Z" fill="#7CAADF"/>
</g>
<defs>
<clipPath id="clip0_1645_224">
<rect width="167" height="86" fill="white"/>
</clipPath>
</defs>
</svg>
