<svg width="80" height="105" viewBox="0 0 80 105" fill="none" xmlns="http://www.w3.org/2000/svg">
<g clip-path="url(#clip0_1645_221)">
<path d="M40.1044 0C35.3003 0 0 44.711 0 66.1561C0 87.6012 17.9634 105 40.1044 105C62.2454 105 80.2089 87.6012 80.2089 66.1561C80.2089 44.711 44.9086 0 40.1044 0ZM30.2872 29.1329C27.7807 33.1792 25.6919 37.2254 24.2298 41.6763C22.141 46.9364 20.6789 52.3988 19.2167 57.8613C18.3812 61.3006 17.5457 64.7399 16.2924 68.1792C15.4569 70.8092 13.577 72.2254 10.8616 72.4277C9.60836 72.4277 8.98172 71.8208 8.56397 70.6069C8.14621 69.5954 7.72846 65.3468 7.93734 63.526C8.14621 60.0867 9.60836 55.0289 10.8616 51.5896C12.3238 47.5434 13.9948 43.9017 16.5013 40.4624C19.4256 36.2139 23.3943 32.3699 26.9452 28.526C27.7807 27.5145 28.8251 26.7052 30.0783 25.896C30.9138 25.289 31.1227 25.4913 31.3316 26.5029C31.1227 27.5145 30.705 28.3237 30.2872 29.1329Z" fill="#1149C1"/>
</g>
<defs>
<clipPath id="clip0_1645_221">
<rect width="80" height="105" fill="white"/>
</clipPath>
</defs>
</svg>
