<svg width="135" height="137" viewBox="0 0 135 137" fill="none" xmlns="http://www.w3.org/2000/svg">
<g clip-path="url(#clip0_1646_277)">
<path d="M66.6637 24.1391C73.2424 24.1391 78.5755 18.7354 78.5755 12.0696C78.5755 5.40372 73.2424 0 66.6637 0C60.085 0 54.752 5.40372 54.752 12.0696C54.752 18.7354 60.085 24.1391 66.6637 24.1391Z" fill="#7CAADF"/>
<path d="M113.893 23.2923C118.51 23.2923 122.252 19.5002 122.252 14.8224C122.252 10.1446 118.51 6.35254 113.893 6.35254C109.277 6.35254 105.534 10.1446 105.534 14.8224C105.534 19.5002 109.277 23.2923 113.893 23.2923Z" fill="#7CAADF"/>
<path d="M20.6892 23.2923C25.3058 23.2923 29.0483 19.5002 29.0483 14.8224C29.0483 10.1446 25.3058 6.35254 20.6892 6.35254C16.0726 6.35254 12.3301 10.1446 12.3301 14.8224C12.3301 19.5002 16.0726 23.2923 20.6892 23.2923Z" fill="#7CAADF"/>
<path d="M84.4276 30.915H50.5731C47.4384 30.915 44.9307 33.456 44.9307 36.6322L46.3935 67.7589C46.3935 70.9351 48.9013 73.4761 52.0359 73.4761L57.4694 117.519C57.4694 118.578 58.3053 119.213 59.1412 119.213H75.6505C76.6954 119.213 77.3223 118.366 77.3223 117.519L82.1288 73.4761H82.5468C85.6814 73.4761 88.1892 70.9351 88.1892 67.7589L89.861 36.6322C90.07 33.456 87.5622 30.915 84.4276 30.915Z" fill="#7CAADF"/>
<path d="M126.014 31.127H102.399C100.31 31.127 98.4287 32.8209 98.4287 35.1501L99.4736 56.7483C99.4736 58.8657 101.145 60.7715 103.444 60.7715L107.206 91.4747C107.206 92.11 107.833 92.7452 108.46 92.7452H119.953C120.58 92.7452 121.207 92.11 121.207 91.4747L124.551 60.7715H124.76C126.85 60.7715 128.731 59.0775 128.731 56.7483L129.984 35.1501C129.984 32.8209 128.104 31.127 126.014 31.127Z" fill="#7CAADF"/>
<path d="M32.3918 31.127H8.98621C6.89643 31.127 5.01562 32.8209 5.01562 35.1501L6.06052 56.7483C6.06052 58.8657 7.73234 60.7715 10.0311 60.7715L13.7927 91.4747C13.7927 92.11 14.4196 92.7452 15.0466 92.7452H26.5404C27.1673 92.7452 27.7943 92.11 27.7943 91.4747L31.1379 60.7715H31.3469C33.4367 60.7715 35.3175 59.0775 35.3175 56.7483L36.5714 35.1501C36.3624 32.8209 34.6906 31.127 32.3918 31.127Z" fill="#7CAADF"/>
<path d="M124.969 84.6982L124.342 87.2392C129.149 88.9332 132.283 91.2624 132.283 93.8033C132.283 97.8265 124.76 102.061 113.684 102.061C102.608 102.061 95.0851 97.8265 95.0851 93.8033C95.0851 91.4741 98.0108 89.1449 102.608 87.4509L102.19 84.6982C96.339 86.604 92.5774 89.9919 92.5774 93.8033C92.5774 97.6148 96.13 100.791 101.772 102.697L94.6672 111.167C91.7415 109.049 88.1889 107.355 83.8003 106.296L82.7554 110.743C90.9056 113.072 95.9211 116.884 95.9211 120.695C95.9211 126.412 84.2183 132.553 67.291 132.553C50.3638 132.553 38.661 126.201 38.661 120.695C38.661 117.095 43.2585 113.284 50.9907 110.955L50.3638 106.508C46.3932 107.567 43.0495 109.261 40.5418 110.955L33.6455 102.908C39.079 101.003 42.4226 97.8265 42.4226 94.2268C42.4226 90.4154 38.661 87.0275 32.8096 85.1217L32.1827 87.6627C36.9892 89.3567 39.9149 91.6859 39.9149 94.0151C39.9149 98.0383 32.3916 102.273 21.3158 102.273C10.2399 102.273 2.71672 98.0383 2.71672 94.0151C2.71672 91.6859 5.64242 89.3567 10.031 87.6627L9.613 84.91C3.76161 86.8157 0 90.2037 0 94.0151C0 99.944 9.40403 104.814 21.1068 104.814C24.0325 104.814 26.7492 104.602 29.257 103.967L37.1981 113.496C35.1084 115.613 33.8545 117.942 33.8545 120.695C33.8545 130.012 48.483 137.211 66.8731 137.211C85.2632 137.211 100.31 129.8 100.31 120.483C100.31 118.154 99.2647 115.825 97.5929 113.708L105.952 103.755C108.46 104.179 110.968 104.602 113.893 104.602C125.805 104.602 135 99.944 135 93.8033C135 89.9919 131.029 86.604 124.969 84.6982Z" fill="#7CAADF"/>
</g>
<defs>
<clipPath id="clip0_1646_277">
<rect width="135" height="137" fill="white"/>
</clipPath>
</defs>
</svg>
