<svg width="135" height="100" viewBox="0 0 135 100" fill="none" xmlns="http://www.w3.org/2000/svg">
<g clip-path="url(#clip0_1645_207)">
<path d="M67.5005 99.9992C72.2572 99.9992 76.1132 96.0863 76.1132 91.2594C76.1132 86.4325 72.2572 82.5195 67.5005 82.5195C62.7438 82.5195 58.8877 86.4325 58.8877 91.2594C58.8877 96.0863 62.7438 99.9992 67.5005 99.9992Z" fill="#7CAADF"/>
<path d="M94.5399 79.4716C93.1378 79.4716 91.5354 78.8619 90.534 77.4391C90.534 77.4391 81.9212 66.057 68.1007 66.057C54.08 66.057 44.2654 77.6424 44.2654 77.6424C42.4627 79.6749 39.4583 80.0814 37.255 78.2521C35.2521 76.4229 34.8515 73.3741 36.6541 71.1383C37.255 70.5285 49.4731 56.0977 68.1007 56.0977C86.7283 56.0977 97.9449 70.9351 98.3455 71.5448C99.9479 73.7806 99.5473 76.8294 97.344 78.6586C96.5429 79.2684 95.5414 79.4716 94.5399 79.4716Z" fill="#7CAADF"/>
<path d="M21.4323 56.0976C20.0302 56.0976 18.8285 55.4878 17.827 54.4716C16.0243 52.4391 16.0243 49.3903 18.0273 47.3578C18.8285 46.5448 38.8581 28.0488 68.7024 28.0488C98.5466 28.0488 116.573 46.9513 117.374 47.7643C119.177 49.7968 119.177 52.8456 117.174 54.8781C115.171 56.7074 112.167 56.7074 110.164 54.6748C109.963 54.4716 94.3403 38.2114 68.7024 38.2114C42.8641 38.2114 25.0377 54.6748 24.8374 54.8781C23.8359 55.6911 22.6341 56.0976 21.4323 56.0976Z" fill="#7CAADF"/>
<path d="M130.193 35.3659C128.791 35.3659 127.589 34.7561 126.588 33.7398C126.187 33.5366 104.355 9.95935 69.1025 9.95935C33.4497 9.95935 8.61286 33.7398 8.41256 33.9431C6.40959 35.7724 3.40514 35.7724 1.40217 33.7398C-0.400497 31.7073 -0.400497 28.6585 1.60247 26.626C2.60395 25.813 29.4437 0 69.1025 0C108.962 0 132.797 26.0163 133.798 27.0325C135.601 29.065 135.401 32.3171 133.398 34.1463C132.597 34.9593 131.395 35.3659 130.193 35.3659Z" fill="#7CAADF"/>
</g>
<defs>
<clipPath id="clip0_1645_207">
<rect width="135" height="100" fill="white"/>
</clipPath>
</defs>
</svg>
