<svg width="119" height="129" viewBox="0 0 119 129" fill="none" xmlns="http://www.w3.org/2000/svg">
<g clip-path="url(#clip0_1645_242)">
<path d="M0.5 64.4707H6.47513V128.5H0.5V64.4707Z" fill="#7CAADF" fill-opacity="0.8" stroke="#002854"/>
<path d="M29.1939 59.5331L29.2004 59.52L29.2062 59.5065L29.6672 58.4285L51.2019 69.5273L50.9169 70.0984C47.8599 76.0175 40.7417 78.6492 34.87 76.0116C28.5899 73.1687 26.1434 65.6471 29.1939 59.5331Z" fill="#7CAADF" fill-opacity="0.8" stroke="#002854"/>
<path d="M10.5849 43.8257L10.581 43.8238C7.86918 42.465 6.7001 38.9528 8.05623 36.2337C8.05636 36.2334 8.05648 36.2332 8.0566 36.2329L19.4696 13.5696L19.4705 13.5679C20.8266 10.8499 24.3294 9.67993 27.0405 11.0371C27.0411 11.0374 27.0418 11.0377 27.0424 11.038L103.976 50.4351L103.98 50.437C106.692 51.7958 107.861 55.3076 106.505 58.0267C106.505 58.0271 106.505 58.0275 106.505 58.0279L95.0956 80.4714C93.902 82.6599 91.9462 83.8053 90.0426 83.8053C89.2665 83.8053 88.289 83.6081 87.5213 83.224C87.5204 83.2236 87.5196 83.2232 87.5188 83.2228L10.5849 43.8257Z" fill="#7CAADF" fill-opacity="0.8" stroke="#002854"/>
<path d="M99.9231 78.4094L107.74 63.0783L110.991 64.7428L103.174 80.074L99.9231 78.4094Z" fill="#7CAADF" fill-opacity="0.8" stroke="#002854"/>
<path d="M108.621 78.5697L108.613 78.585L108.606 78.6008C108.153 79.6599 106.876 80.2055 105.735 79.8294L112.211 67.2436C113.163 68.0225 113.459 69.2355 112.859 70.2887L112.853 70.2985L112.848 70.3086L108.621 78.5697Z" fill="#7CAADF" fill-opacity="0.8" stroke="#002854"/>
<path d="M100.112 25.5893L100.111 25.61V25.6307C100.111 28.1093 98.2198 30.0026 95.7491 30.0026C93.2785 30.0026 91.3877 28.1093 91.3877 25.6307C91.3877 23.1521 93.2785 21.2588 95.7491 21.2588C98.245 21.2588 100.296 23.3778 100.112 25.5893Z" fill="#7CAADF" fill-opacity="0.8" stroke="#002854"/>
<path d="M74.2023 17.3461L74.1892 17.3395L74.1757 17.3337C72.9977 16.8278 72.6336 15.4682 73.1565 14.4174C77.5115 5.89853 86.2179 0.5 95.7492 0.5C105.281 0.5 113.987 5.89852 118.342 14.4174C118.865 15.4682 118.501 16.8277 117.323 17.3337L117.309 17.3395L117.296 17.3461C116.994 17.4976 116.687 17.5049 116.252 17.5049C115.945 17.5049 115.56 17.3856 115.196 17.1575C114.835 16.9312 114.538 16.6251 114.376 16.3014C110.907 9.13421 103.753 4.79557 95.7492 4.79557C87.7439 4.79557 80.5899 9.13541 77.1215 16.3044L77.1165 16.3149L77.1119 16.3256C76.6063 17.5078 75.2492 17.8706 74.2023 17.3461Z" fill="#7CAADF" fill-opacity="0.8" stroke="#002854"/>
<path d="M82.4574 18.8641L82.4574 18.8641L82.4609 18.8569C84.9099 13.7437 90.013 10.668 95.7489 10.668C101.464 10.668 106.588 13.9384 109.47 18.8777C109.96 19.8816 109.455 21.2754 108.418 21.7948C107.418 22.2962 106.018 21.7922 105.496 20.7477C103.716 17.1802 99.9444 14.9635 95.9602 14.9635C91.9761 14.9635 88.2039 17.1802 86.424 20.7477C86.0733 21.4506 85.387 21.9537 84.5464 21.9537C84.111 21.9537 83.8046 21.9464 83.5022 21.7948L83.489 21.7882L83.4755 21.7824C82.2967 21.2762 81.9329 19.9152 82.4574 18.8641Z" fill="#7CAADF" fill-opacity="0.8" stroke="#002854"/>
<path d="M25.8971 71.5244C26.919 74.9992 29.4607 78.0168 32.9656 79.6716C34.3786 80.3784 35.9158 80.6603 37.449 80.748L4.09277 111.961V84.7985L25.8971 71.5244Z" fill="#7CAADF" stroke="#002854"/>
</g>
<defs>
<clipPath id="clip0_1645_242">
<rect width="119" height="129" fill="white"/>
</clipPath>
</defs>
</svg>
