<svg width="115" height="113" viewBox="0 0 115 113" fill="none" xmlns="http://www.w3.org/2000/svg">
<g clip-path="url(#clip0_1645_232)">
<path d="M93.5047 113C84.2617 113 76.3084 108.087 72.4393 100.397C70.2897 95.6975 70.2897 90.7844 70.9346 86.085C71.1496 84.8033 70.9346 83.9489 70.0748 83.0944C66.2056 79.2495 62.3365 75.4045 58.2524 71.5595C57.1776 70.4914 57.1776 69.8506 58.2524 68.7825C62.1215 64.9375 65.9907 61.0926 69.8598 57.2476C70.9346 56.1795 71.5795 56.3931 72.4393 57.2476C76.3084 61.0926 80.1776 64.9375 84.0468 68.9961C84.9066 69.8506 85.7664 70.0642 87.0561 70.0642C90.7103 69.8506 94.3645 69.4234 97.8038 70.0642C103.822 71.3459 108.551 75.1909 111.561 80.7447C113.495 84.3761 114.785 88.2211 114.355 92.2797C114.14 95.0566 113.28 97.62 112.421 100.397C111.991 101.679 110.486 101.679 109.196 100.397C106.832 98.0472 104.467 95.6975 102.103 93.3478C100.168 91.4253 98.2337 89.5028 96.2991 87.5803C94.5795 85.8714 92 85.4442 90.2804 86.2986C87.9159 87.3667 86.6262 89.5028 87.0561 92.0661C87.2711 93.3477 88.1309 94.6294 88.9907 95.4839C93.0748 99.5425 97.1589 103.601 101.243 107.873C102.748 109.369 102.748 110.65 101.673 111.291C100.813 111.718 99.9533 112.145 99.0935 112.359C96.944 112.573 94.7944 112.786 93.5047 113Z" fill="#1149C1"/>
<path d="M0.644531 20.7201C1.07444 18.7976 1.93425 16.0206 2.79406 13.0301C3.22397 11.7484 4.51369 11.5348 5.80341 12.6029C7.09313 13.8845 8.5978 15.3798 9.88752 16.6615C12.8969 19.652 15.6913 22.6426 18.9156 25.4195C21.9249 28.4101 25.5791 27.7692 27.7286 24.3515C28.8034 22.429 28.3735 19.8656 26.4389 17.9431C22.3548 13.8845 18.2707 9.82593 14.1866 5.76733C13.7567 5.34011 13.1118 4.69928 13.1118 4.27206C13.1118 3.63123 13.3268 2.13595 13.7567 2.13595C18.0557 0.427067 22.5698 -0.640986 27.2987 0.640678C33.7473 2.13595 38.4763 5.55372 41.9156 11.1076C44.28 14.9526 44.9249 19.0112 44.71 23.2834C44.71 24.7787 44.28 26.2739 44.28 27.7692C44.28 28.4101 44.71 29.2645 45.3548 29.9053C48.7941 33.3231 52.2333 36.9545 55.6726 40.1586C56.7473 41.2267 56.7473 41.6539 55.6726 42.9356C51.8034 46.7806 47.9343 50.6256 44.0651 54.4705C43.2053 55.5386 42.5604 55.325 41.7006 54.4705C38.2614 51.0528 34.8221 47.635 31.3829 44.0036C30.523 43.1492 29.6632 42.9356 28.3735 42.9356C24.7193 43.1492 21.0651 43.5764 17.6258 42.9356C11.6071 41.6539 6.87818 37.8089 3.86883 32.4687C1.7193 29.2645 0.859485 25.6331 0.644531 20.7201Z" fill="#1149C1"/>
<path d="M77.5979 27.983C75.8783 25.8469 75.4484 23.9244 76.9531 21.7883C78.6727 19.2249 77.5979 16.448 76.5232 14.3119C74.1587 9.82608 69.8596 7.04915 65.1306 5.55387C62.3362 4.69943 59.7568 4.27221 57.1774 3.63138C56.5325 3.41777 55.8876 2.99055 55.0278 2.34971C56.5325 1.70888 57.6073 1.06805 58.4671 1.06805C61.9063 1.06805 65.3456 0.854441 68.7848 1.28166C75.0185 2.34971 80.3923 5.55387 85.5512 9.18525C91.5699 13.6711 97.5886 18.3705 101.673 24.9924C103.177 27.3422 104.467 29.9055 104.682 32.896C104.897 34.6049 106.187 36.1002 107.047 37.5955C107.047 37.8091 108.336 37.3818 108.766 37.1682C111.561 34.8185 114.14 36.1002 114.785 38.6635C115 39.7316 114.57 41.4404 113.71 42.2949C111.131 45.2854 108.336 47.8488 105.542 50.4121C103.392 52.3346 101.028 52.121 99.7381 49.7713C98.6634 48.0624 99.3082 46.5671 100.598 45.499C101.243 44.8582 101.458 44.2174 100.598 43.7902C98.2334 42.0813 95.654 40.1588 93.2895 38.4499C92.6447 38.0227 91.7848 37.8091 90.925 38.0227C89.2054 38.2363 87.4858 38.0227 86.411 36.741C85.5512 35.673 84.9063 36.1002 84.0465 36.9546C77.5979 43.5766 70.9344 49.9849 64.2708 56.3932C60.6166 60.0246 56.7475 63.656 53.0932 67.5009C52.0185 68.569 51.3736 68.569 50.5138 67.5009C48.5792 65.3648 46.4297 63.2287 44.4951 61.0926C55.4577 49.9849 66.4203 39.0907 77.5979 27.983Z" fill="#1149C1"/>
<path d="M49.6542 72.4138C49.2242 73.2682 49.0093 74.1227 48.3644 74.7635C37.6168 86.7257 26.8691 98.6879 16.1214 110.65C14.4018 112.573 12.0373 112.786 10.3177 110.864C7.52331 107.873 4.51396 105.096 1.71957 102.319C-0.429961 100.183 -0.429961 98.9015 1.71957 96.7654C10.3177 89.0754 19.1308 81.3854 27.7289 73.4818C31.1682 70.4913 34.3925 67.5007 37.8317 64.5102C39.7663 62.8013 41.271 62.8013 43.2056 64.5102C44.9252 66.2191 46.6448 67.7143 48.1495 69.6368C48.7943 70.2777 49.0093 71.3457 49.6542 72.4138Z" fill="#1149C1"/>
</g>
<defs>
<clipPath id="clip0_1645_232">
<rect width="115" height="113" fill="white"/>
</clipPath>
</defs>
</svg>
