<svg width="94" height="143" viewBox="0 0 94 143" fill="none" xmlns="http://www.w3.org/2000/svg">
<g clip-path="url(#clip0_1646_267)">
<path d="M77.2031 5.98393L77.207 5.98454C78.3228 6.15695 79.7405 6.77296 81.2998 7.70893C82.8492 8.63906 84.4999 9.86155 86.0741 11.2051C89.0861 13.776 91.7513 16.7325 92.9019 18.8663L80.5001 30.9447C80.4761 30.8465 80.4493 30.742 80.4196 30.632C80.2195 29.8925 79.8814 28.8951 79.3284 27.8698C78.2211 25.8166 76.2246 23.611 72.7371 23.2118L72.7315 23.2112C70.2766 22.9583 67.4635 22.959 64.438 22.9902C64.0407 22.9943 63.6395 22.9989 63.2348 23.0036C60.7338 23.0324 58.0963 23.0628 55.3756 22.9797C55.57 22.0793 55.7369 21.0268 55.7369 19.9651C55.7369 16.7526 54.802 13.8384 53.248 11.715C51.6933 9.59041 49.4965 8.23473 46.9998 8.23473C44.5031 8.23473 42.3064 9.59041 40.7516 11.715C39.1977 13.8384 38.2627 16.7526 38.2627 19.9651C38.2627 21.0265 38.4296 22.0788 38.624 22.9791C35.8009 23.0632 33.1385 23.0323 30.6424 23.0033C30.2477 22.9988 29.8572 22.9942 29.4709 22.9902C26.4754 22.959 23.7229 22.9583 21.2682 23.2112L21.2682 23.2112L21.2626 23.2118C17.7751 23.611 15.7785 25.8166 14.6712 27.8698C14.1182 28.8951 13.7802 29.8925 13.5801 30.632C13.5503 30.742 13.5236 30.8465 13.4996 30.9447L1.12054 18.8885C2.5021 16.7361 5.34285 13.7756 8.43511 11.2096C10.0565 9.86414 11.7317 8.64003 13.2795 7.70866C14.8377 6.77107 16.2245 6.15624 17.2793 5.98422C18.4394 5.80521 19.8214 5.80309 21.347 5.86905C22.1078 5.90195 22.8969 5.95134 23.7063 6.00256L23.7981 6.00838C24.5766 6.05767 25.3729 6.10809 26.1715 6.14582C29.4674 6.30157 32.9192 6.25171 35.5912 4.94105L35.5999 4.93678L35.6084 4.93218C38.1155 3.57939 41.0523 2.46696 43.373 1.69081C44.5311 1.30346 45.5313 1.00135 46.2414 0.796214C46.5964 0.693668 46.8788 0.615412 47.0719 0.562913C47.1358 0.545532 47.1899 0.530976 47.2337 0.519298C47.278 0.53262 47.333 0.549226 47.398 0.569006C47.5918 0.627994 47.8749 0.715199 48.2308 0.827695C48.9426 1.05272 49.945 1.37877 51.1055 1.78246C53.4301 2.59099 56.3759 3.70632 58.893 4.94105C61.5654 6.25191 65.0785 6.30151 68.4034 6.14583C69.2211 6.10754 70.0346 6.0562 70.8267 6.00621L70.8843 6.00257C71.6961 5.95134 72.4843 5.90194 73.2395 5.86905C74.7561 5.80298 76.1059 5.80547 77.2031 5.98393Z" fill="#7CAADF" fill-opacity="0.8" stroke="#002854"/>
<path d="M76.5466 47.5902L76.5466 47.5901L76.5467 47.5895L76.5471 47.5867L76.549 47.5743L76.5566 47.5233C76.5632 47.4778 76.5729 47.4097 76.585 47.3205C76.6091 47.1421 76.6427 46.8798 76.6801 46.5465C76.7549 45.8799 76.8448 44.9305 76.9048 43.8032C77.0249 41.5445 77.0237 38.5904 76.5477 35.771L76.5055 35.5213L76.6557 35.3666C76.6542 35.3599 76.6505 35.349 76.6421 35.3328C76.6105 35.2717 76.5038 35.1274 76.1749 34.9349C75.8488 34.744 75.3354 34.5241 74.541 34.2968C71.3453 33.3823 63.9598 32.4443 47.2417 32.4443C30.5238 32.4443 23.1423 33.445 19.9508 34.4191C19.158 34.6611 18.6459 34.8951 18.3208 35.0981C17.9942 35.302 17.8832 35.4575 17.8471 35.5318C17.8187 35.5905 17.8282 35.6142 17.8291 35.6167C17.8292 35.6168 17.8292 35.6168 17.8292 35.6168C17.8296 35.6182 17.8301 35.6195 17.8305 35.6206L17.9778 35.7824L17.9351 36.0243C17.4601 38.7158 17.4584 41.6677 17.5787 43.9596C17.6387 45.1028 17.7286 46.0759 17.8035 46.7626C17.841 47.1058 17.8746 47.3771 17.8988 47.562C17.9109 47.6545 17.9206 47.7253 17.9273 47.7727L17.9348 47.8259L17.9367 47.8389L17.9372 47.8419L17.9373 47.8425L17.9373 47.8426L17.9373 47.8426L18.0164 48.3725L17.4901 48.4142C17.4892 48.4144 17.488 48.4145 17.4867 48.4148C17.4778 48.4162 17.4593 48.4195 17.4327 48.4263C17.3795 48.4398 17.2945 48.4669 17.1898 48.5194C16.9837 48.6227 16.6878 48.8309 16.405 49.2546C15.8351 50.1086 15.2807 51.8999 15.7582 55.5887C15.99 57.3794 16.5767 58.5559 17.2886 59.3311C18.0012 60.1071 18.8729 60.5178 19.7365 60.7187C20.6041 60.9205 21.4533 60.9075 22.0925 60.841C22.4104 60.8078 22.6721 60.7619 22.8525 60.7247C22.9426 60.7062 23.0121 60.6899 23.0579 60.6785C23.0808 60.6729 23.0977 60.6685 23.1083 60.6656L23.1193 60.6627L23.1205 60.6623L23.1209 60.6622L23.1212 60.6621L23.5585 60.5379L23.7233 60.9623C27.3125 70.2055 33.1699 75.7439 38.1268 78.9737C40.6066 80.5895 42.8611 81.6274 44.4927 82.2605C45.3083 82.577 45.9675 82.7921 46.4206 82.9276C46.6471 82.9953 46.822 83.0431 46.9391 83.0737C46.9613 83.0795 46.9814 83.0846 46.9995 83.0892C47.0175 83.0846 47.0376 83.0795 47.0599 83.0737C47.1769 83.0431 47.3518 82.9953 47.5783 82.9276C48.0314 82.7921 48.6907 82.577 49.5062 82.2605C51.1378 81.6274 53.3923 80.5895 55.8721 78.9737C60.829 75.7439 66.6864 70.2055 70.2756 60.9623L70.435 60.5518L76.5466 47.5902ZM76.5466 47.5902L76.4701 48.0827L76.9547 48.1595C76.9557 48.1597 76.9569 48.16 76.9584 48.1603C76.9673 48.1625 76.9859 48.1674 77.0125 48.1764C77.0655 48.1944 77.1499 48.2287 77.2526 48.2904C77.4549 48.412 77.7409 48.6474 77.9995 49.1002C78.5204 50.0124 78.9619 51.8689 78.2457 55.5576L78.2429 55.572L78.241 55.5865C78.01 57.3115 77.4253 58.4577 76.7126 59.2233C75.9981 59.9909 75.1226 60.4107 74.2548 60.6269C73.3838 60.844 72.5322 60.8527 71.8922 60.8046C71.5737 60.7806 71.3116 60.7429 71.1309 60.7116C71.0407 60.6959 70.9711 60.6819 70.9252 60.6721C70.9142 60.6698 70.9046 60.6677 70.8964 60.6659C70.8875 60.6639 70.8802 60.6622 70.8747 60.661L70.8636 60.6584L70.8624 60.6581L70.862 60.658L70.8617 60.6579L76.5466 47.5902ZM22.2881 42.1764C21.7881 42.1809 21.7881 42.1813 21.7881 42.1817L21.7882 42.1831L21.7882 42.1876L21.7885 42.2041L21.7897 42.2659C21.791 42.3197 21.7932 42.3986 21.7973 42.5013C21.8053 42.7065 21.8202 43.0069 21.8481 43.3917C21.9038 44.1612 22.0112 45.269 22.2177 46.6305C22.6308 49.3526 23.4413 53.0943 25.0323 57.1759C28.2156 65.3423 34.5322 74.8864 47.0426 80.3192L47.2417 80.4057L47.4409 80.3192C59.9513 74.8864 66.2678 65.3423 69.4511 57.1759C71.0422 53.0943 71.8527 49.3526 72.2657 46.6305C72.4723 45.269 72.5796 44.1612 72.6354 43.3917C72.6632 43.0069 72.6782 42.7065 72.6862 42.5013C72.6902 42.3986 72.6925 42.3197 72.6937 42.2659L72.695 42.2041L72.6952 42.1876L72.6953 42.1831L72.6953 42.1817C72.6953 42.1813 72.6953 42.1809 72.1953 42.1764M22.2881 42.1764C21.9116 41.8475 21.9119 41.8471 21.9123 41.8467L21.913 41.8459L21.9146 41.844L21.9185 41.8397L21.9289 41.8284C21.937 41.8197 21.9474 41.8088 21.9603 41.7959C21.986 41.7702 22.0213 41.7365 22.067 41.6968C22.1583 41.6174 22.2906 41.514 22.4689 41.4021C22.8261 41.1777 23.3635 40.9214 24.117 40.7527C25.6259 40.4148 27.9665 40.435 31.4247 41.7072L31.4295 41.709L31.4294 41.709C35.9415 43.4214 43.3535 44.1688 47.2427 44.4207C51.3666 44.1692 58.5408 43.4218 63.054 41.709L63.0588 41.7072C66.5169 40.435 68.8576 40.4148 70.3665 40.7527C71.12 40.9214 71.6573 41.1777 72.0146 41.4021C72.1928 41.514 72.3252 41.6174 72.4165 41.6968C72.4621 41.7365 72.4975 41.7702 72.5232 41.7959C72.5305 41.8033 72.5371 41.81 72.5429 41.816C72.5472 41.8205 72.5511 41.8246 72.5545 41.8284L72.5649 41.8397L72.5688 41.844L72.5704 41.8459L72.5712 41.8467C72.5715 41.8471 72.5719 41.8475 72.1953 42.1764M22.2881 42.1764L21.7881 42.1809L21.7864 41.9907L21.9116 41.8475L22.2881 42.1764ZM72.1953 42.1764L72.5719 41.8475L72.697 41.9907L72.6953 42.1809L72.1953 42.1764ZM76.6563 35.3751C76.6561 35.375 76.656 35.3737 76.6565 35.3713C76.6568 35.374 76.6565 35.3752 76.6563 35.3751Z" fill="#7CAADF" fill-opacity="0.8" stroke="#002854"/>
<path d="M30.1959 79.2366L30.3734 79.1032C30.3877 79.1277 30.4024 79.1531 30.4177 79.1793C30.6298 79.5436 30.9391 80.0672 31.3291 80.7061C32.1089 81.9835 33.2125 83.724 34.507 85.5752C35.8008 87.4254 37.2899 89.3927 38.8411 91.1209C40.2983 92.7442 41.8313 94.1804 43.3271 95.1042L39.5127 142.5H39.4935H39.4704H39.4467H39.4225H39.3978H39.3726H39.3469H39.3207H39.294H39.2668H39.2391H39.2109H39.1822H39.153H39.1233H39.0931H39.0624H39.0312H38.9996H38.9675H38.9349H38.9018H38.8682H38.8342H38.7997H38.7647H38.7293H38.6934H38.657H38.6202H38.5829H38.5451H38.5069H38.4682H38.4291H38.3896H38.3495H38.3091H38.2682H38.2268H38.1851H38.1428H38.1002H38.0571H38.0135H37.9696H37.9252H37.8804H37.8351H37.7895H37.7434H37.6969H37.65H37.6027H37.5549H37.5068H37.4582H37.4092H37.3598H37.3101H37.2599H37.2093H37.1583H37.107H37.0552H37.0031H36.9505H36.8976H36.8443H36.7906H36.7365H36.6821H36.6272H36.572H36.5165H36.4605H36.4042H36.3475H36.2905H36.233H36.1753H36.1171H36.0586H35.9998H35.9406H35.881H35.8211H35.7609H35.7003H35.6394H35.5781H35.5165H35.4545H35.3922H35.3296H35.2667H35.2034H35.1398H35.0758H35.0116H34.947H34.8821H34.8169H34.7514H34.6855H34.6194H34.5529H34.4861H34.419H34.3517H34.284H34.216H34.1477H34.0791H34.0103H33.9411H33.8717H33.8019H33.7319H33.6616H33.591H33.5201H33.449H33.3775H33.3058H33.2339H33.1616H33.0891H33.0164H32.9433H32.87H32.7965H32.7226H32.6486H32.5742H32.4997H32.4248H32.3498H32.2744H32.1989H32.1231H32.047H31.9707H31.8942H31.8174H31.7404H31.6632H31.5858H31.5081H31.4302H31.3521H31.2737H31.1952H31.1164H31.0374H30.9582H30.8788H30.7992H30.7193H30.6393H30.5591H30.4786H30.398H30.3172H30.2361H30.1549H30.0735H29.9919H29.9101H29.8282H29.746H29.6637H29.5812H29.4985H29.4156H29.3326H29.2494H29.166H29.0825H28.9987H28.9149H28.8309H28.7467H28.6623H28.5778H28.4932H28.4084H28.3234H28.2383H28.1531H28.0677H27.9821H27.8965H27.8107H27.7247H27.6386H27.5524H27.4661H27.3796H27.2931H27.2063H27.1195H27.0326H26.9455H26.8583H26.771H26.6836H26.5961H26.5085H26.4207H26.3329H26.245H26.1569H26.0688H25.9806H25.8923H25.8039H25.7153H25.6268H25.5381H25.4493H25.3605H25.2716H25.1826H25.0935H25.0044H24.9151H24.8258H24.7365H24.6471H24.5576H24.468H24.3784H24.2888H24.1991H24.1093H24.0195H23.9296H23.8397H23.7497H23.6597H23.5696H23.4795H23.3894H23.2992H23.209H23.1188H23.0285H22.9382H22.8479H22.7576H22.6672H22.5768H22.4864H22.396H22.3056H22.2151H22.1247H22.0342H21.9437H21.8532H21.7628H21.6723H21.5818H21.4913H21.4009H21.3104H21.22H21.1295H21.0391H20.9487H20.8583H20.7679H20.6776H20.5872H20.4969H20.4067H20.3164H20.2262H20.136H20.0459H19.9558H19.8657H19.7757H19.6857H19.5958H19.5059H19.416H19.3262H19.2365H19.1468H19.0572H18.9676H18.8781H18.7887H18.6993H18.61H18.5208H18.4316H18.3425H18.2535H18.1645H18.0757H17.9869H17.8982H17.8095H17.721H17.6326H17.5442H17.456H17.3678H17.2797H17.1918H17.1039H17.0161H16.9285H16.8409H16.7535H16.6662H16.5789H16.4918H16.4048H16.318H16.2312H16.1446H16.0581H15.9717H15.8855H15.7993H15.7134H15.6275H15.5418H15.4562H15.3708H15.2855H15.2003H15.1153H15.0305H14.9458H14.8612H14.7768H14.6926H14.6085H14.5246H14.4408H14.3572H14.2738H14.1905H14.1075H14.0245H13.9418H13.8592H13.7768H13.6946H13.6126H13.5307H13.4491H13.3676H13.2863H13.2052H13.1243H13.0436H12.9631H12.8828H12.8027H12.7228H12.6432H12.5637H12.4844H12.4053H12.3265H12.2479H12.1694H12.0912H12.0133H11.9355H11.858H11.7807H11.7036H11.6268H11.5502H11.4738H11.3977H11.3218H11.2462H11.1708H11.0956H11.0207H10.946H10.8716H10.7975H10.7236H10.6499H10.5765H10.5034H10.4306H10.358H10.2856H10.2136H10.1418H10.0703H9.99904H9.92808H9.8574H9.78699H9.71688H9.64704H9.5775H9.50824H9.43927H9.3706H9.30222H9.23414H9.16636H9.09888H9.0317H8.96482H8.89826H8.832H8.76605H8.70042H8.6351H8.57009H8.50541H8.44105H8.37701H8.31329H8.2499H8.18684H8.12411H8.06172H7.99965H7.93793H7.87654H7.81549H7.75479H7.69443H7.63442H7.57475H7.51544H7.45648H7.39787H7.33962H7.28172H7.22419H7.16702H7.11022H7.05378H6.99771H6.94201H6.88668H6.83173H6.77715H6.72295H6.66913H6.61569H6.56264H6.50997H6.4577H6.40581H6.35431H6.30321H6.2525H6.20219H6.15229H6.10278H6.05368H6.00498H5.95669H5.90882H5.86135H5.8143C4.90114 142.5 4.16121 142.277 3.55216 141.882C2.93983 141.484 2.43167 140.894 2.01496 140.12C1.17383 138.556 0.73981 136.304 0.559314 133.608C0.322365 130.069 0.525664 125.912 0.728527 121.764C0.835358 119.579 0.942068 117.397 0.984298 115.309C0.999574 114.553 1.01195 113.841 1.02366 113.168C1.05853 111.162 1.0874 109.501 1.16907 108.07C1.27795 106.164 1.47918 104.71 1.89783 103.446C2.7262 100.945 4.43599 99.0891 8.30617 95.9743C12.4208 92.7332 18.0493 88.4314 22.6514 84.9382C24.9524 83.1917 26.9961 81.6479 28.4645 80.5407C29.1988 79.9871 29.7891 79.5426 30.1959 79.2366Z" fill="#7CAADF" fill-opacity="0.8" stroke="#002854"/>
<path d="M63.6256 79.1046L63.8127 79.2461C64.2257 79.5585 64.8247 80.0117 65.5684 80.5751C67.0559 81.7019 69.1225 83.2692 71.4388 85.0315C76.0709 88.5556 81.6999 92.8577 85.6945 95.975C89.5641 99.0894 91.2737 100.945 92.102 103.446C92.5206 104.71 92.7218 106.164 92.8307 108.07C92.9124 109.501 92.9413 111.162 92.9761 113.168C92.9878 113.841 93.0002 114.554 93.0155 115.309C93.0577 117.397 93.1644 119.579 93.2713 121.764C93.4741 125.912 93.6774 130.069 93.4405 133.608C93.26 136.304 92.826 138.556 91.9848 140.12C91.5681 140.894 91.06 141.484 90.4476 141.882C89.8386 142.277 89.0987 142.5 88.1855 142.5H88.1384H88.091H88.0431H87.9948H87.9461H87.897H87.8475H87.7976H87.7473H87.6966H87.6455H87.594H87.5421H87.4898H87.4372H87.3841H87.3307H87.2768H87.2226H87.1681H87.1131H87.0578H87.0021H86.946H86.8896H86.8328H86.7756H86.7181H86.6602H86.6019H86.5433H86.4844H86.425H86.3654H86.3054H86.245H86.1843H86.1233H86.0619H86.0001H85.9381H85.8757H85.813H85.7499H85.6865H85.6228H85.5587H85.4944H85.4297H85.3647H85.2994H85.2337H85.1678H85.1015H85.035H84.9681H84.9009H84.8334H84.7657H84.6976H84.6292H84.5605H84.4916H84.4223H84.3528H84.2829H84.2128H84.1424H84.0717H84.0008H83.9295H83.858H83.7862H83.7142H83.6418H83.5692H83.4964H83.4232H83.3499H83.2762H83.2023H83.1282H83.0538H82.9791H82.9042H82.829H82.7536H82.678H82.6021H82.526H82.4496H82.373H82.2962H82.2191H82.1418H82.0643H81.9865H81.9085H81.8304H81.7519H81.6733H81.5945H81.5154H81.4361H81.3566H81.277H81.1971H81.117H81.0367H80.9562H80.8755H80.7946H80.7135H80.6322H80.5507H80.4691H80.3872H80.3052H80.223H80.1406H80.058H79.9753H79.8923H79.8093H79.726H79.6426H79.559H79.4752H79.3913H79.3072H79.223H79.1386H79.054H78.9693H78.8845H78.7994H78.7143H78.629H78.5436H78.458H78.3723H78.2864H78.2004H78.1143H78.0281H77.9417H77.8552H77.7686H77.6818H77.595H77.508H77.4209H77.3336H77.2463H77.1589H77.0713H76.9837H76.8959H76.808H76.7201H76.632H76.5438H76.4556H76.3672H76.2788H76.1902H76.1016H76.0129H75.9241H75.8353H75.7463H75.6573H75.5682H75.479H75.3898H75.3005H75.2111H75.1217H75.0322H74.9426H74.853H74.7633H74.6736H74.5838H74.4939H74.404H74.3141H74.2241H74.1341H74.044H73.9539H73.8638H73.7736H73.6834H73.5931H73.5029H73.4125H73.3222H73.2319H73.1415H73.0511H72.9607H72.8703H72.7798H72.6894H72.5989H72.5085H72.418H72.3275H72.237H72.1466H72.0561H71.9656H71.8751H71.7847H71.6942H71.6038H71.5134H71.423H71.3326H71.2422H71.1519H71.0616H70.9713H70.881H70.7908H70.7006H70.6104H70.5203H70.4302H70.3401H70.2501H70.1601H70.0702H69.9803H69.8905H69.8007H69.711H69.6214H69.5318H69.4422H69.3527H69.2633H69.1739H69.0847H68.9954H68.9063H68.8172H68.7282H68.6393H68.5505H68.4617H68.373H68.2844H68.1959H68.1075H68.0192H67.931H67.8429H67.7548H67.6669H67.5791H67.4913H67.4037H67.3162H67.2288H67.1415H67.0543H66.9672H66.8803H66.7934H66.7067H66.6201H66.5337H66.4474H66.3611H66.2751H66.1891H66.1033H66.0177H65.9321H65.8467H65.7615H65.6764H65.5914H65.5066H65.422H65.3375H65.2531H65.1689H65.0849H65.001H64.9173H64.8338H64.7504H64.6672H64.5842H64.5013H64.4186H64.3361H64.2538H64.1716H64.0897H64.0079H63.9263H63.8449H63.7637H63.6826H63.6018H63.5212H63.4407H63.3605H63.2805H63.2006H63.121H63.0416H62.9624H62.8834H62.8046H62.7261H62.6477H62.5696H62.4917H62.414H62.3366H62.2593H62.1824H62.1056H62.0291H61.9528H61.8767H61.8009H61.7254H61.65H61.575H61.5001H61.4256H61.3512H61.2771H61.2033H61.1298H61.0565H60.9834H60.9107H60.8382H60.7659H60.6939H60.6222H60.5508H60.4797H60.4088H60.3382H60.2679H60.1979H60.1281H60.0587H59.9895H59.9207H59.8521H59.7838H59.7158H59.6481H59.5807H59.5137H59.4469H59.3804H59.3143H59.2484H59.1829H59.1177H59.0528H58.9882H58.9239H58.86H58.7964H58.7331H58.6702H58.6075H58.5453H58.4833H58.4217H58.3604H58.2995H58.2389H58.1786H58.1187H58.0592H58H57.9412H57.8827H57.8245H57.7668H57.7093H57.6523H57.5956H57.5393H57.4833H57.4278H57.3726H57.3177H57.2633H57.2092H57.1555H57.1022H57.0493H56.9967H56.9446H56.8928H56.8414H56.7905H56.7399H56.6897H56.6399H56.5906H56.5416H56.493H56.4449H56.3971H56.3498H56.3029H56.2564H56.2103H56.1646H56.1194H56.0746H56.0302H55.9863H55.9427H55.8996H55.857H55.8147H55.773H55.7316H55.6907H55.6502H55.6102H55.5707H55.5315H55.4929H55.4547H55.4169H55.3796H55.3428H55.3064H55.2705H55.2351H55.2001H55.1656H55.1316H55.098H55.0649H55.0323H55.0002H54.9685H54.9374H54.9067H54.8765H54.8468H54.8176H54.7889H54.7607H54.733H54.7058H54.6791H54.6529H54.6271H54.602H54.5773H54.5531H54.5294H54.5063H54.4871L50.6727 95.1042C52.1685 94.1804 53.7015 92.7442 55.1587 91.1209C56.7099 89.3927 58.199 87.4254 59.4928 85.5752C60.7873 83.724 61.8909 81.9835 62.6707 80.7061C63.0607 80.0672 63.37 79.5436 63.5821 79.1793C63.5971 79.1536 63.6116 79.1287 63.6256 79.1046ZM64.201 107.561H63.7563L63.7044 108.003L64.201 108.061C63.7044 108.003 63.7044 108.003 63.7043 108.003L63.7042 108.004L63.7039 108.007L63.7028 108.017L63.6986 108.054C63.6951 108.087 63.69 108.134 63.6837 108.196C63.6713 108.32 63.6542 108.5 63.6354 108.728C63.598 109.185 63.5539 109.837 63.5271 110.618C63.4736 112.178 63.4884 114.267 63.7659 116.363C64.0421 118.449 64.5847 120.592 65.6181 122.226C66.6668 123.884 68.2356 125.033 70.4999 125.033C72.7597 125.033 74.3427 123.905 75.4119 122.267C76.4659 120.653 77.0324 118.534 77.3243 116.46C77.6174 114.378 77.64 112.295 77.5748 110.72C77.5422 109.931 77.4874 109.265 77.4324 108.784C77.405 108.544 77.377 108.346 77.3508 108.199C77.3378 108.127 77.3239 108.059 77.3089 108.003C77.3015 107.975 77.2915 107.94 77.278 107.905L77.2772 107.903C77.2699 107.884 77.2357 107.794 77.1577 107.713L77.0104 107.561H76.7989H64.201Z" fill="#7CAADF" fill-opacity="0.8" stroke="#002854"/>
<rect x="-95" y="142" width="107" height="59" fill="#A72B2B"/>
</g>
<defs>
<clipPath id="clip0_1646_267">
<rect width="94" height="143" fill="white"/>
</clipPath>
</defs>
</svg>
