<svg width="88" height="76" viewBox="0 0 88 76" fill="none" xmlns="http://www.w3.org/2000/svg">
<path d="M0 65.6254C14.626 57.181 22.9141 44.6349 22.9141 27.9873L18.5263 11.0984L30.4709 25.5746C27.0582 29.4349 21.9391 32.5714 17.0637 32.5714C7.80055 32.5714 1.4626 26.0571 1.4626 16.8889C1.4626 6.99683 8.28809 0 17.795 0C29.4958 0 37.5402 9.65079 37.5402 26.5397C37.5402 48.254 25.8393 66.1079 6.09418 76L0 65.6254ZM50.4598 65.6254C65.0859 57.181 73.374 44.6349 73.374 27.9873L68.9861 11.0984L80.9307 25.5746C77.2742 29.4349 72.1551 32.5714 67.2798 32.5714C58.0166 32.5714 51.6787 26.0571 51.6787 16.8889C51.6787 6.99683 58.5042 0 68.0111 0C79.7119 0 87.7562 9.65079 87.7562 26.5397C87.7562 48.254 76.0554 66.1079 56.3102 76L50.4598 65.6254Z" fill="#CBD3DD"/>
</svg>
