<svg xmlns="http://www.w3.org/2000/svg" viewBox="0 0 59.75 51.73"><g id="Capa_2" data-name="Capa 2"><g id="Capa_1-2" data-name="Capa 1"><path d="M0,43.83c9.77-5.34,15.16-13.22,15.16-23.76L12.82,8.37l8,10c-2.46,2.48-6,4.43-9.22,4.43C5.18,22.83.75,18.34.75,11.91.75,4.83,5.5,0,12,0c8.31,0,13.77,6.91,13.77,18.71,0,14.49-7.7,26.23-21.44,33Zm33.94,0C43.71,38.49,49.1,30.61,49.1,20.07L46.76,8.37l8,10c-2.46,2.48-6,4.43-9.21,4.43-6.38,0-10.81-4.49-10.81-10.92C34.7,4.83,39.44,0,46,0c8.31,0,13.77,6.91,13.77,18.71,0,14.49-7.7,26.23-21.44,33Z"/></g></g></svg>