<svg xmlns="http://www.w3.org/2000/svg" viewBox="0 0 59.75 51.73"><g id="Capa_2" data-name="Capa 2"><g id="Capa_1-2" data-name="Capa 1"><path d="M0,33.14C0,18.64,7.82,6.79,21.56,0l4.25,8c-9.65,5.23-15,13.11-15,23.76L13,43.47l-8-10c2.47-2.59,6-4.55,9.33-4.55,6.27,0,10.7,4.5,10.7,11,0,7-4.63,11.8-11.29,11.8C5.57,51.73,0,44.82,0,33.14Zm33.94,0C33.94,18.64,41.76,6.79,55.5,0l4.25,8c-9.65,5.23-15,13.11-15,23.76l2.22,11.7-8-10c2.47-2.59,6-4.55,9.33-4.55,6.27,0,10.7,4.5,10.7,11,0,7-4.63,11.8-11.29,11.8C39.52,51.73,33.94,44.82,33.94,33.14Z"/></g></g></svg>