<svg width="88" height="76" viewBox="0 0 88 76" fill="none" xmlns="http://www.w3.org/2000/svg">
<g clip-path="url(#clip0_1567_1966)">
<path d="M0 49.7016C0 27.9873 11.9446 9.89206 31.6898 0L37.5402 10.6159C22.9141 18.819 14.626 31.3651 14.626 48.254L18.7701 65.1429L6.82549 50.6667C10.482 46.5651 15.6011 43.4286 20.7202 43.4286C29.7396 43.4286 36.0776 49.9429 36.0776 59.3524C36.0776 69.0032 29.4958 76 19.7452 76C8.28809 76 0 66.1079 0 49.7016ZM50.4598 49.7016C50.4598 27.9873 62.4044 9.89206 82.1496 0L88 10.6159C73.374 18.819 65.0859 31.3651 65.0859 48.254L69.2299 65.1429L57.2853 50.6667C60.9418 46.5651 66.061 43.4286 71.1801 43.4286C80.1995 43.4286 86.5374 49.9429 86.5374 59.3524C86.5374 69.0032 79.9557 76 70.205 76C58.7479 76 50.4598 66.1079 50.4598 49.7016Z" fill="#CBD3DD"/>
</g>
<defs>
<clipPath id="clip0_1567_1966">
<rect width="88" height="76" fill="white"/>
</clipPath>
</defs>
</svg>
