<svg width="100" height="100" viewBox="0 0 100 100" fill="none" xmlns="http://www.w3.org/2000/svg">
<rect x="0.5" y="0.5" width="99" height="99" fill="#002854" stroke="white"/>
<path d="M28.4747 67.3866L39.1413 72.72C39.5115 72.9047 39.9196 73.0009 40.3333 73.0009C40.7471 73.0009 41.1551 72.9047 41.5253 72.72L51 67.9813L60.4747 72.7173C60.844 72.9047 61.2522 73.0026 61.6663 73.003C62.0805 73.0035 62.4889 72.9065 62.8587 72.72L73.5253 67.3866C74.4293 66.9333 75 66.0106 75 65V51.6666C75 50.656 74.4293 49.7333 73.5253 49.28L64.3333 44.6853V33C64.3333 31.9893 63.7627 31.0666 62.8587 30.6133L52.192 25.28C51.8215 25.0946 51.4129 24.998 50.9987 24.998C50.5844 24.998 50.1758 25.0946 49.8053 25.28L39.1387 30.6133C38.2373 31.0666 37.6667 31.9893 37.6667 33V44.6853L28.4747 49.2826C28.0314 49.5034 27.6585 49.8436 27.398 50.2647C27.1375 50.6859 26.9997 51.1714 27 51.6666V65C27 66.0106 27.5707 66.9333 28.4747 67.3866ZM40.3333 49.3146L46.3707 52.3333L38.6027 56.2186L32.5653 53.2L40.3333 49.3146ZM51 42.648L59 38.648V44.6853L51 48.6853V42.648ZM67.704 52.3333L60.0187 56.176L53.9813 53.1573L61.6667 49.3146L67.704 52.3333ZM40.3333 67.352L40.168 67.2693V61.4L48.3333 57.3146V63.352L40.3333 67.352ZM61.6667 67.352V61.3146L69.6667 57.3146V63.352L61.6667 67.352ZM51 30.648L57.0373 33.6666L49.352 37.5093L43.3147 34.4906L51 30.648Z" fill="white"/>
</svg>
