<svg width="100" height="100" viewBox="0 0 100 100" fill="none" xmlns="http://www.w3.org/2000/svg">
<rect x="0.5" y="0.5" width="99" height="99" fill="#002854" stroke="white"/>
<path d="M81.717 61.034C81.7187 59.0889 81.5257 57.1486 81.141 55.242C80.7648 53.3853 80.1965 51.5729 79.445 49.834C78.7324 48.1443 77.842 46.5353 76.789 45.034C75.7591 43.5025 74.58 42.0769 73.269 40.778C71.9517 39.4206 70.4927 38.2083 68.917 37.162C67.3854 36.1029 65.7439 35.2124 64.021 34.506L62.517 33.898V29.034C62.517 28.1853 62.1799 27.3714 61.5797 26.7712C60.9796 26.1711 60.1657 25.834 59.317 25.834H46.517C45.6683 25.834 44.8544 26.1711 44.2543 26.7712C43.6541 27.3714 43.317 28.1853 43.317 29.034V33.898L41.717 34.506C40.0273 35.2186 38.4183 36.1089 36.917 37.162C35.3794 38.1837 33.953 39.3634 32.661 40.682C31.3036 41.9993 30.0913 43.4583 29.045 45.034C27.9859 46.5656 27.0954 48.2071 26.389 49.93C25.6472 51.6725 25.0791 53.4839 24.693 55.338C24.3146 57.2132 24.1216 59.121 24.117 61.034V70.634H20.917V77.034H84.917V70.634H81.717V61.034ZM30.517 61.034C30.5203 59.519 30.6703 58.008 30.965 56.522C31.2563 55.0831 31.696 53.6782 32.277 52.33C32.8379 50.9988 33.5237 49.7238 34.325 48.522C35.9492 46.1293 38.0123 44.0662 40.405 42.442C41.3357 41.8295 42.3088 41.2841 43.317 40.81V61.034H49.717V32.234H56.117V61.034H62.517V40.81C63.5216 41.2911 64.4943 41.8362 65.429 42.442C66.5789 43.2579 67.6502 44.1792 68.629 45.194C69.6423 46.1652 70.5537 47.2375 71.349 48.394C72.184 49.5806 72.8818 50.8581 73.429 52.202C74.0001 53.5539 74.4395 54.9577 74.741 56.394C75.0871 57.9176 75.28 59.472 75.317 61.034V70.634H30.517V61.034Z" fill="white"/>
</svg>
