<svg width="100" height="100" viewBox="0 0 100 100" fill="none" xmlns="http://www.w3.org/2000/svg">
<rect x="0.5" y="0.5" width="99" height="99" fill="#002854" stroke="white"/>
<path d="M50.9997 55C46.093 55 45.6663 52.7067 45.6663 52.3333H40.333C40.333 54.7867 42.093 59.1333 48.333 60.12V63H53.6663V60.12C58.9997 59.2133 61.6663 55.7733 61.6663 52.3333C61.6663 49.3467 60.2797 44.3333 50.9997 44.3333C45.6663 44.3333 45.6663 42.6533 45.6663 41.6667C45.6663 40.68 47.533 39 50.9997 39C54.4663 39 54.7063 40.7067 54.733 41.6667H60.0663C60.0303 39.85 59.3769 38.0997 58.2137 36.7039C57.0505 35.308 55.4467 34.3497 53.6663 33.9867V31H48.333V33.9067C42.9997 34.7867 40.333 38.2267 40.333 41.6667C40.333 44.6533 41.7197 49.6667 50.9997 49.6667C56.333 49.6667 56.333 51.48 56.333 52.3333C56.333 53.1867 54.6797 55 50.9997 55Z" fill="white"/>
<path d="M32.333 20.334H24.333V25.6673H29.6663V71.0006C29.6663 71.7079 29.9473 72.3862 30.4474 72.8863C30.9475 73.3864 31.6258 73.6673 32.333 73.6673H69.6663C70.3736 73.6673 71.0519 73.3864 71.552 72.8863C72.0521 72.3862 72.333 71.7079 72.333 71.0006V25.6673H77.6663V20.334H32.333ZM66.9997 68.334H34.9997V25.6673H66.9997V68.334Z" fill="white"/>
</svg>
