<svg width="100" height="100" viewBox="0 0 100 100" fill="none" xmlns="http://www.w3.org/2000/svg">
<rect x="0.5" y="0.5" width="99" height="99" fill="#002854" stroke="white"/>
<path d="M74.8507 35.3652C74.8065 34.9183 74.6496 34.49 74.3948 34.1203C74.1399 33.7505 73.7954 33.4515 73.3935 33.2512L52.1212 22.6151C51.7518 22.4302 51.3444 22.334 50.9313 22.334C50.5182 22.334 50.1108 22.4302 49.7414 22.6151L28.4691 33.2512C28.0683 33.4527 27.7248 33.752 27.4706 34.1216C27.2163 34.4911 27.0595 34.9189 27.0146 35.3652C26.9853 35.6497 24.4592 63.995 49.853 75.288C50.1924 75.4411 50.5604 75.5203 50.9326 75.5203C51.3049 75.5203 51.6729 75.4411 52.0122 75.288C77.406 63.995 74.8799 35.6523 74.8507 35.3652ZM50.9326 69.9247V48.9263H33.6755C32.643 45.146 32.1559 41.2376 32.2289 37.3196L50.9326 27.9677V48.9263H68.11C66.0918 56.212 61.4677 64.8246 50.9326 69.9247Z" fill="white"/>
</svg>
