<svg id="Capa_1" data-name="Capa 1" xmlns="http://www.w3.org/2000/svg" viewBox="0 0 221 159"><defs><style>.cls-1{fill:#fff;}</style></defs><path class="cls-1" d="M10.22,61.31H2V48.54H25.26v58h-15Z"/><path class="cls-1" d="M76.54,101.21a22.67,22.67,0,0,1-32,0C39.34,96.08,36,87.73,36,77.57S39.34,59,44.56,53.84a22.65,22.65,0,0,1,32,0c5.21,5.13,8.6,13.47,8.6,23.73S81.75,96.08,76.54,101.21ZM55.94,62.53c-3.13,2.69-5,9.73-5,15.12,0,4.61,1.65,12.17,5,15.13a6.74,6.74,0,0,0,9.21,0c3.22-2.79,5-10.09,5-15,0-5.13-2-12.52-5-15.21a6.71,6.71,0,0,0-9.21,0Z"/><path class="cls-1" d="M93.14,71.74a13.18,13.18,0,0,1-3.65-9.38,14.66,14.66,0,0,1,3.56-9.83c3.65-4.08,8.87-4.6,12.17-4.6,6.26,0,10,2.17,12.34,4.6a13.41,13.41,0,0,1,3.65,9.56,13.55,13.55,0,0,1-3.73,9.65c-3.65,3.83-8.52,4.61-12.26,4.61C101.22,76.35,96.79,75.57,93.14,71.74Zm7.47-14.17a6.66,6.66,0,0,0,.53,9.48,6.2,6.2,0,0,0,4.25,1.56A7.09,7.09,0,0,0,110,66.79a6.79,6.79,0,0,0,1.91-4.7,6.71,6.71,0,0,0-2.08-4.86,6.15,6.15,0,0,0-4.44-1.65A6.6,6.6,0,0,0,100.61,57.57Zm37.9-9h7.56l-33.64,58H105Zm-5,54.06a13.21,13.21,0,0,1-3.65-9.39,14.61,14.61,0,0,1,3.56-9.82c3.65-4.09,8.87-4.61,12.17-4.61,6.26,0,10,2.18,12.34,4.61A13.39,13.39,0,0,1,161.54,93a13.54,13.54,0,0,1-3.74,9.65c-3.65,3.82-8.51,4.6-12.25,4.6C141.55,107.2,137.12,106.42,133.47,102.6Zm7.47-14.17a6.66,6.66,0,0,0,.52,9.47,6.23,6.23,0,0,0,4.26,1.57,7,7,0,0,0,4.61-1.83,6.73,6.73,0,0,0-.17-9.56,6.2,6.2,0,0,0-4.44-1.65A6.59,6.59,0,0,0,140.94,88.43Z"/><path class="cls-1" d="M180.1,76.74c4.16,0,7.79.45,11.1,2.91a14.76,14.76,0,0,1,5.73,12,14.24,14.24,0,0,1-6,12c-3.49,2.46-6.76,2.86-10.92,2.86h-6.17V76.74Zm-1.7,25.56h2c2.24,0,5.33-.18,7.92-2.11a10.51,10.51,0,0,0,4.07-8.5,10.64,10.64,0,0,0-4-8.59c-2.6-1.88-5.78-2.06-8-2.06h-2Z"/><path class="cls-1" d="M219.12,81h-11.9V88.6h11.55v4.3H207.22v9.4h11.9v4.29H202.65V76.74h16.47Z"/><path class="cls-1" d="M17.69,129.92H8.39v5.38h8.84v5.42H8.39v6.17h9.3v5.42H2V124.5H17.69Z"/><path class="cls-1" d="M22.9,152.31V124.5h5.59l15.09,17.93V124.5H50v27.81H44.41l-15.09-18v18Z"/><path class="cls-1" d="M69.47,137.13h13.8v.29c0,3.38-1.21,8.51-4.29,11.72s-6.63,3.79-9.92,3.79-6.93-.54-10.18-3.87a15.85,15.85,0,0,1-.08-21.14c3.42-3.55,7.63-4,10.92-4a14,14,0,0,1,7.8,2.09,15.31,15.31,0,0,1,4.5,5l-5.79,3.13a8.48,8.48,0,0,0-2.46-3,7,7,0,0,0-4.26-1.33A7.5,7.5,0,0,0,63.76,132a9.54,9.54,0,0,0-2.38,6.59,8.74,8.74,0,0,0,2.34,6.38,7.29,7.29,0,0,0,5.63,2.17,7.11,7.11,0,0,0,4.83-1.5,6.53,6.53,0,0,0,2-3.3H69.47Z"/><path class="cls-1" d="M103.54,147.06H93l-2.13,5.25H84.23L95.45,124.5h5.88l11,27.81h-6.67Zm-1.75-4.92-3.42-9.35-3.46,9.35Z"/><path class="cls-1" d="M115.42,152.31V124.5H121l15.09,17.93V124.5h6.42v27.81h-5.58l-15.1-18v18Z"/><path class="cls-1" d="M168.71,151.43a12.93,12.93,0,0,1-6.13,1.5c-5.13,0-8.59-1.75-10.93-4a14.92,14.92,0,0,1,0-21,14.8,14.8,0,0,1,10.39-4,16.68,16.68,0,0,1,6.67,1.54v7.43a8.83,8.83,0,0,0-6.51-3,7.8,7.8,0,0,0-5.67,2.17,8.91,8.91,0,0,0-2.62,6.42,8.38,8.38,0,0,0,2.41,6.13,8.49,8.49,0,0,0,6,2.33,8.77,8.77,0,0,0,6.38-2.88Z"/><path class="cls-1" d="M180.26,135.09h11.09V124.5h6.42v27.81h-6.42v-11.8H180.26v11.8h-6.42V124.5h6.42Z"/><path class="cls-1" d="M219.58,129.92h-9.3v5.38h8.84v5.42h-8.84v6.17h9.3v5.42H203.86V124.5h15.72Z"/><path class="cls-1" d="M3.32,8.12H8.63a14.14,14.14,0,0,1,9.59,3,12.67,12.67,0,0,1,4.45,10,12.38,12.38,0,0,1-4.57,10c-2.38,2-4.87,3-9.51,3H3.32ZM6.21,31.4H8.74a11.08,11.08,0,0,0,7.45-2.34,10,10,0,0,0,3.51-7.92c0-6.24-4.37-10.29-11-10.29H6.21Z"/><path class="cls-1" d="M41.46,10.85H30.86v7.72H41.15V21.3H30.86V31.4h10.6v2.73H28v-26H41.46Z"/><path class="cls-1" d="M58.39,13.26a6.21,6.21,0,0,0-1.52-1.94,4.62,4.62,0,0,0-2.93-.9c-2.57,0-4.36,1.6-4.36,4a2.74,2.74,0,0,0,1,2.26,8.57,8.57,0,0,0,2.73,1.64l2.5,1.09a12.56,12.56,0,0,1,4,2.45,6.26,6.26,0,0,1,1.88,4.72c0,4.8-3.55,8-8.23,8a7.76,7.76,0,0,1-5.66-2.11,9.36,9.36,0,0,1-2.42-4.6l2.81-.78a6.18,6.18,0,0,0,1.56,3.32,5,5,0,0,0,3.75,1.44,4.93,4.93,0,0,0,5.22-5.15,3.87,3.87,0,0,0-1.29-3,11.46,11.46,0,0,0-3.12-1.8L52,20.79a11.6,11.6,0,0,1-3.47-2.14,5.4,5.4,0,0,1-1.79-4.25c0-4,3.08-6.71,7.29-6.71a7.06,7.06,0,0,1,4.18,1.17,7.81,7.81,0,0,1,2.53,2.88Z"/><path class="cls-1" d="M67,8.12h5.3a14.15,14.15,0,0,1,9.6,3,12.67,12.67,0,0,1,4.44,10,12.4,12.4,0,0,1-4.56,10c-2.38,2-4.88,3-9.52,3H67ZM69.85,31.4h2.54a11.1,11.1,0,0,0,7.45-2.34,10,10,0,0,0,3.51-7.92c0-6.24-4.37-10.29-11-10.29H69.85Z"/><path class="cls-1" d="M105.11,10.85H94.5v7.72h10.3V21.3H94.5V31.4h10.61v2.73H91.62v-26h13.49Z"/></svg>