<svg id="Capa_1" data-name="Capa 1" xmlns="http://www.w3.org/2000/svg" viewBox="0 0 216 147"><defs><style>.cls-1{fill:#fff;}</style></defs><path class="cls-1" d="M16.09,58.9a10.11,10.11,0,0,1,7.66,2.77,10.3,10.3,0,0,1,2.68,7,9,9,0,0,1-2.49,6.53,8.81,8.81,0,0,1-4.32,2.16l9.82,12.83H19.33l-7.8-12v12H3.4V58.9ZM11.53,73h1.55a6.12,6.12,0,0,0,4-1.27,3.91,3.91,0,0,0,1-2.63A3.7,3.7,0,0,0,17,66.41a5.52,5.52,0,0,0-3.9-1.22H11.53Z"/><path class="cls-1" d="M50.68,65.8H41V71h9.17v6.91H41v5.4h9.68v6.91H32.87V58.9H50.68Z"/><path class="cls-1" d="M61.45,58.9,69,78,76.58,58.9h8.83L72.07,90.24H65.72L52.56,58.9Z"/><path class="cls-1" d="M96.84,58.9V90.24H88.71V58.9Z"/><path class="cls-1" d="M105.48,80.84a11,11,0,0,0,7.19,3.2A4.12,4.12,0,0,0,115.82,83a2.82,2.82,0,0,0,.8-2,2.45,2.45,0,0,0-.89-1.88c-.8-.7-2-1-4-1.64l-2.12-.66a10.25,10.25,0,0,1-4.51-2.54,7.87,7.87,0,0,1-1.79-5.54,10.25,10.25,0,0,1,2.87-7.57,11.05,11.05,0,0,1,8-3,22,22,0,0,1,9.68,2.54l-3.24,6.34A8.31,8.31,0,0,0,115.26,65a3.92,3.92,0,0,0-2.68.94,2.31,2.31,0,0,0-.8,1.69A2.15,2.15,0,0,0,112.2,69a5.16,5.16,0,0,0,2.73,1.41l2.49.75a12.06,12.06,0,0,1,5.69,3.1,7.39,7.39,0,0,1,2,5.6,10.65,10.65,0,0,1-3,7.89c-2.68,2.68-5.92,3.2-9.26,3.2a16.74,16.74,0,0,1-6.16-1A21.56,21.56,0,0,1,102,87.42Z"/><path class="cls-1" d="M138.38,58.9V90.24h-8.13V58.9Z"/><path class="cls-1" d="M173.21,86.29a18.72,18.72,0,0,1-24.72,0,16.38,16.38,0,0,1,0-23.45,18.75,18.75,0,0,1,24.72,0,16.41,16.41,0,0,1,0,23.45ZM154.5,68.58A8.57,8.57,0,0,0,152,74.73a8,8,0,0,0,2.49,5.83,8.9,8.9,0,0,0,6.35,2.49,8.5,8.5,0,0,0,8.83-8.46,8.47,8.47,0,0,0-2.53-6,9.37,9.37,0,0,0-6.3-2.49A9,9,0,0,0,154.5,68.58ZM168.13,50,160.9,56.4l-3.48-2.58,6-7.24Z"/><path class="cls-1" d="M183.32,90.24V58.9h8.13l15,19.17V58.9h8.13V90.24h-8.13l-15-19.17V90.24Z"/><path class="cls-1" d="M13.93,106.63c4.63,0,9.53.68,13.84,4.84a16.76,16.76,0,0,1,5.06,12.59c0,5.53-1.9,9.53-4.79,12.42-4.85,4.9-10.9,5.27-13.85,5.27H2.81V106.63Zm-3,28.27h2.16c1.69,0,5.37-.15,8-2.36a11,11,0,0,0,3.42-8.48,10.41,10.41,0,0,0-2.9-7.59c-2.63-2.63-6-3-8.53-3H10.92Z"/><path class="cls-1" d="M58.73,113.47H47v6.8H58.15v6.84H47v7.79H58.73v6.85H38.88V106.63H58.73Z"/><path class="cls-1" d="M88.32,106.63c1.9,0,6.22.1,9,2.68A9.05,9.05,0,0,1,99.8,116a8.2,8.2,0,0,1-1.16,4.47,6.35,6.35,0,0,1-3,2.58,9.25,9.25,0,0,1,4.85,2.37,8.57,8.57,0,0,1,2.26,6.27,9.61,9.61,0,0,1-2.74,7.11c-2.89,2.79-7.1,3-9.26,3H77.58V106.63ZM85.58,120.9H86.9a7.55,7.55,0,0,0,4.11-1,3.75,3.75,0,0,0,1.42-3.11,3.59,3.59,0,0,0-1.37-3c-1.16-.89-2.74-.89-4.21-.89H85.58Zm0,14.53h2c2.06,0,4.53-.05,6-1.42a3.9,3.9,0,0,0,1.15-2.95,3.79,3.79,0,0,0-1.1-2.84c-1.42-1.32-4.16-1.32-5.79-1.32H85.58Z"/><path class="cls-1" d="M138.55,127.43c0,3.37-.42,7.53-3.89,11.11s-7.27,4-11,4-7.58-.53-11-4-3.9-7.74-3.9-11.11v-20.8H117v20.59c0,1.52.11,4.1,1.85,5.89a7.4,7.4,0,0,0,9.79,0c1.74-1.79,1.84-4.37,1.84-5.89V106.63h8.11Z"/><path class="cls-1" d="M158.56,106.63c4.48,0,7.27,1.47,8.95,3.05a10.57,10.57,0,0,1,3.06,7.85,9.62,9.62,0,0,1-2.74,7.16,11,11,0,0,1-4.9,2.68l10.8,14.38h-9.9l-9.48-13.85v13.85h-8.11V106.63Zm-4.21,16h1.84c1.47,0,3.48-.16,4.84-1.52a4.74,4.74,0,0,0,1.32-3.43,4.28,4.28,0,0,0-1.63-3.58,7.93,7.93,0,0,0-4.48-1.1h-1.89Z"/><path class="cls-1" d="M209.32,111a18.7,18.7,0,0,1,0,26.43,18.77,18.77,0,0,1-13.59,5.16A19.31,19.31,0,0,1,182,137.38a17.94,17.94,0,0,1-5.48-13.06A19.6,19.6,0,0,1,182,111c2.37-2.37,6.74-5.16,13.74-5.16C201.21,105.84,205.79,107.52,209.32,111ZM188,116.32a10.73,10.73,0,0,0-3.11,8,10.49,10.49,0,0,0,3.22,7.9,10.31,10.31,0,0,0,7.53,2.89,10.37,10.37,0,0,0,10.84-10.85,11.05,11.05,0,0,0-3.05-7.89,11.25,11.25,0,0,0-7.74-3A10.79,10.79,0,0,0,188,116.32Zm15.59-19.49-8.64,6.8-3.42-2.8L198.58,93Z"/><path class="cls-1" d="M20.66,18.72a6.51,6.51,0,0,0-5.45-2.85c-3.5,0-4.6,2.2-4.6,3.9A2.81,2.81,0,0,0,11.66,22c.8.75,1.9,1.15,4,1.9,2.6.9,5.05,1.8,6.75,3.35a9.07,9.07,0,0,1,2.85,7c0,6.5-4.7,10.95-11.6,10.95a13.73,13.73,0,0,1-11.5-6.3l4.25-4.05a7.82,7.82,0,0,0,7,4.45c2.95,0,5.15-1.8,5.15-4.6a3.87,3.87,0,0,0-1.3-3C16,30.57,14,29.92,12.11,29.27a16,16,0,0,1-5.55-2.9,7.76,7.76,0,0,1-2.65-6.2c0-4.9,3.3-9.8,10.7-9.8a12.83,12.83,0,0,1,9.45,3.9Z"/><path class="cls-1" d="M37.46,11.12V44.47H31V11.12Z"/><path class="cls-1" d="M45.06,44.47V11.12h4.5l20.3,22.25V11.12h6.5V44.47h-4.5l-20.3-22.3v22.3Z"/></svg>