<svg id="Capa_1" data-name="Capa 1" xmlns="http://www.w3.org/2000/svg" viewBox="0 0 215 117"><defs><style>.cls-1{fill:#fff;}</style></defs><path class="cls-1" d="M8.14,43.83H1.2V34.34H19.38V83H8.14Z"/><path class="cls-1" d="M64.64,79.08a18.09,18.09,0,0,1-13.07,5,17.82,17.82,0,0,1-12.92-5c-4.74-4.67-7-12-7-20.36s2.26-15.84,7-20.44a17.82,17.82,0,0,1,12.92-5,18.09,18.09,0,0,1,13.07,5c4.75,4.6,7,12,7,20.44S69.39,74.41,64.64,79.08ZM47.12,44.7C43.54,48.21,43,55.21,43,58.65c0,3.79.66,10.65,4.09,14a6.54,6.54,0,0,0,9.05,0c3.43-3.36,4.09-10.22,4.09-14,0-3.44-.51-10.44-4.09-13.95a6.54,6.54,0,0,0-9.05,0Z"/><path class="cls-1" d="M14.42,111.16a10.69,10.69,0,0,1-3.9.86,9.46,9.46,0,0,1-6.71-2.6,9.1,9.1,0,0,1-2.62-6.32,9.3,9.3,0,0,1,2.62-6.4A9.22,9.22,0,0,1,10.37,94a10.78,10.78,0,0,1,4.05.88v5.39a4.8,4.8,0,0,0-3.92-1.9,4.4,4.4,0,0,0-3.12,1.14,4.83,4.83,0,0,0-1.51,3.56,4.76,4.76,0,0,0,1.4,3.38,4.82,4.82,0,0,0,3.23,1.2,5.09,5.09,0,0,0,3.92-1.82Z"/><path class="cls-1" d="M24.3,94.28a5.59,5.59,0,0,1,4.24,1.54A5.69,5.69,0,0,1,30,99.72a5,5,0,0,1-1.38,3.61,4.85,4.85,0,0,1-2.39,1.2l5.44,7.1H26.1L21.78,105v6.66h-4.5V94.28Zm-2.52,7.78h.86a3.37,3.37,0,0,0,2.18-.7,2.15,2.15,0,0,0,.57-1.46,2,2,0,0,0-.6-1.46,3.06,3.06,0,0,0-2.15-.67h-.86Z"/><path class="cls-1" d="M43.44,98.11H38.08V101h5.07v3.82H38.08v3h5.36v3.83H33.58V94.28h9.86Zm-1.56-8.74-4,3.54L36,91.48l3.3-4Z"/><path class="cls-1" d="M46.3,111.63V94.28h5.9a9.68,9.68,0,0,1,6.89,2.4A8.45,8.45,0,0,1,61.51,103a8,8,0,0,1-2.26,6,9.43,9.43,0,0,1-6.66,2.63Zm4.5-3.83h.91a5.18,5.18,0,0,0,3.79-1.24A4.74,4.74,0,0,0,56.83,103a5.22,5.22,0,0,0-1.35-3.8,5,5,0,0,0-3.59-1.09H50.8Z"/><path class="cls-1" d="M68.87,94.28v17.35h-4.5V94.28Z"/><path class="cls-1" d="M79.06,98.11v13.52h-4.5V98.11H70.87V94.28H82.75v3.83Z"/><path class="cls-1" d="M100.38,109.44a10.36,10.36,0,0,1-13.68,0,9.07,9.07,0,0,1,0-13,10.36,10.36,0,0,1,13.68,0,9.07,9.07,0,0,1,0,13ZM90,99.64a4.74,4.74,0,0,0-1.38,3.41A4.4,4.4,0,0,0,90,106.27a4.9,4.9,0,0,0,3.51,1.38A4.72,4.72,0,0,0,98.43,103,4.68,4.68,0,0,0,97,99.64a5.17,5.17,0,0,0-3.48-1.38A5,5,0,0,0,90,99.64Z"/><path class="cls-1" d="M112,111.63V94.28h5.91a9.68,9.68,0,0,1,6.89,2.4,8.48,8.48,0,0,1,2.41,6.32,8,8,0,0,1-2.26,6,9.41,9.41,0,0,1-6.65,2.63Zm4.5-3.83h.91a5.2,5.2,0,0,0,3.8-1.24,4.74,4.74,0,0,0,1.32-3.56,5.18,5.18,0,0,0-1.35-3.8,5,5,0,0,0-3.59-1.09h-1.09Z"/><path class="cls-1" d="M134.59,94.28v17.35h-4.5V94.28Z"/><path class="cls-1" d="M145.25,94.28a5.59,5.59,0,0,1,4.24,1.54,5.69,5.69,0,0,1,1.48,3.9,5,5,0,0,1-1.38,3.61,4.85,4.85,0,0,1-2.39,1.2l5.44,7.1h-5.59L142.73,105v6.66h-4.5V94.28Zm-2.52,7.78h.86a3.37,3.37,0,0,0,2.18-.7,2.15,2.15,0,0,0,.57-1.46,2.06,2.06,0,0,0-.59-1.46,3.09,3.09,0,0,0-2.16-.67h-.86Z"/><path class="cls-1" d="M164.39,98.11H159V101h5.07v3.82H159v3h5.36v3.83h-9.86V94.28h9.86Z"/><path class="cls-1" d="M179.7,111.16a10.69,10.69,0,0,1-3.9.86,9.46,9.46,0,0,1-6.71-2.6,9.1,9.1,0,0,1-2.62-6.32,9.08,9.08,0,0,1,9.18-9.1,10.78,10.78,0,0,1,4,.88v5.39a4.8,4.8,0,0,0-3.92-1.9,4.4,4.4,0,0,0-3.12,1.14,4.83,4.83,0,0,0-1.51,3.56,4.76,4.76,0,0,0,1.4,3.38,4.82,4.82,0,0,0,3.23,1.2,5.09,5.09,0,0,0,3.92-1.82Z"/><path class="cls-1" d="M189.76,98.11v13.52h-4.5V98.11h-3.69V94.28h11.88v3.83Z"/><path class="cls-1" d="M211.08,109.44a10.34,10.34,0,0,1-13.67,0,9.07,9.07,0,0,1,0-13,10.34,10.34,0,0,1,13.67,0,9.07,9.07,0,0,1,0,13Zm-10.34-9.8a4.74,4.74,0,0,0-1.38,3.41,4.36,4.36,0,0,0,1.38,3.22,4.9,4.9,0,0,0,3.51,1.38,4.7,4.7,0,0,0,4.88-4.68,4.67,4.67,0,0,0-1.4-3.33,5.19,5.19,0,0,0-3.48-1.38A5,5,0,0,0,200.74,99.64Z"/><path class="cls-1" d="M3.54,15.37h9.57V7.78h2.07V26.46H13.11V17.33H3.54v9.13H1.46V7.78H3.54Z"/><path class="cls-1" d="M30.3,21.19H22.35l-2.24,5.27H17.82L26.41,6.88l8.37,19.58H32.49Zm-.81-2-3.13-7.47-3.2,7.47Z"/><path class="cls-1" d="M45.45,11.48a4.33,4.33,0,0,0-1.09-1.4,3.36,3.36,0,0,0-2.1-.65,2.87,2.87,0,0,0-3.14,2.89,2,2,0,0,0,.7,1.62,6.15,6.15,0,0,0,2,1.18l1.8.78a9.28,9.28,0,0,1,2.88,1.76,4.52,4.52,0,0,1,1.34,3.39,5.6,5.6,0,0,1-5.9,5.74,5.58,5.58,0,0,1-4.07-1.51A6.78,6.78,0,0,1,36.1,22l2-.56a4.28,4.28,0,0,0,1.12,2.38,3.82,3.82,0,0,0,6.43-2.66A2.81,2.81,0,0,0,44.75,19a8.27,8.27,0,0,0-2.24-1.29l-1.68-.78a8.36,8.36,0,0,1-2.49-1.54,3.88,3.88,0,0,1-1.29-3.05c0-2.89,2.21-4.82,5.24-4.82a5.07,5.07,0,0,1,3,.84,5.67,5.67,0,0,1,1.82,2.07Z"/><path class="cls-1" d="M55,9.74V26.46H53V9.74H48.42v-2H59.56v2Z"/><path class="cls-1" d="M71.41,21.19h-8l-2.24,5.27H58.92l8.6-19.58,8.37,19.58h-2.3Zm-.81-2-3.14-7.47-3.19,7.47Z"/><path class="cls-1" d="M93.75,79.41H85.34l-1.71,4.21H78.29l9-22.28H92l8.79,22.28H95.42Zm-1.4-3.94L89.61,68l-2.77,7.48Z"/><path class="cls-1" d="M103.27,83.62V61.34h4.48L119.84,75.7V61.34H125V83.62h-4.47L108.42,69.19V83.62Zm17.27-27.29a7.77,7.77,0,0,1-1.4,1.94,3.2,3.2,0,0,1-2.37,1,5.42,5.42,0,0,1-2.07-.53l-1.37-.53a4.09,4.09,0,0,0-1.24-.37c-.47,0-1.1.2-1.53,1.3l-2.38-1.67a9.3,9.3,0,0,1,1.24-2,3.19,3.19,0,0,1,2.44-1,4.83,4.83,0,0,1,2,.47l1.34.53a4,4,0,0,0,1.37.4,1.75,1.75,0,0,0,1.6-1.27Z"/><path class="cls-1" d="M149.6,64.08a11.84,11.84,0,0,1,0,16.77A11.89,11.89,0,0,1,141,84.12a12.28,12.28,0,0,1-8.69-3.27,11.38,11.38,0,0,1-3.47-8.29,12.43,12.43,0,0,1,3.44-8.45,13.16,13.16,0,0,1,17.33,0Zm-13.53,3.41a6.84,6.84,0,0,0-2,5,6.63,6.63,0,0,0,2,5,6.56,6.56,0,0,0,4.78,1.84,6.74,6.74,0,0,0,4.94-1.91,6.64,6.64,0,0,0,1.94-5,7,7,0,0,0-1.94-5A7.13,7.13,0,0,0,141,65.58,6.87,6.87,0,0,0,136.07,67.49Z"/><path class="cls-1" d="M168.41,66.79a5.42,5.42,0,0,0-3.74-1.61,2.78,2.78,0,0,0-2.17.77,2,2,0,0,0-.57,1.4,1.58,1.58,0,0,0,.5,1.24,8.93,8.93,0,0,0,2.81,1.27l1.67.63a8.88,8.88,0,0,1,3,1.71,5.52,5.52,0,0,1,1.64,4.14,8,8,0,0,1-2,5.51c-2,2.07-4.84,2.27-6.31,2.27a9.46,9.46,0,0,1-4.41-.93,14.16,14.16,0,0,1-3.27-2.44l2.67-3.68a13.89,13.89,0,0,0,2.07,1.71,5.21,5.21,0,0,0,2.8.8,3.58,3.58,0,0,0,2.34-.77,2.29,2.29,0,0,0,.8-1.8,2,2,0,0,0-.76-1.61,10.66,10.66,0,0,0-2.61-1.23l-1.84-.64a7.39,7.39,0,0,1-3.1-1.77,5.46,5.46,0,0,1-1.34-3.87,6.84,6.84,0,0,1,1.94-5,7.19,7.19,0,0,1,5.51-2,10.78,10.78,0,0,1,6.61,2.2Z"/><path class="cls-1" d="M186.88,63c2.89,0,5.4.31,7.69,2a10.23,10.23,0,0,1,4,8.34,9.86,9.86,0,0,1-4.15,8.34c-2.42,1.7-4.69,2-7.57,2h-4.28V63Zm-1.18,17.7h1.37a9,9,0,0,0,5.49-1.45,7.66,7.66,0,0,0,0-11.85,9.28,9.28,0,0,0-5.52-1.42H185.7Z"/><path class="cls-1" d="M213.92,65.94h-8.25v5.24h8v3h-8v6.51h8.25v3H202.51V63h11.41Z"/></svg>