<svg id="Capa_1" data-name="Capa 1" xmlns="http://www.w3.org/2000/svg" viewBox="0 0 212 150"><defs><style>.cls-1{fill:#fff;}</style></defs><path class="cls-1" d="M5.28,63.51a21.23,21.23,0,0,1,5.24-12c3.89-4.05,9.05-5,13.42-5,6.51,0,11.19,2,13.89,4.68,2.22,2.15,4.05,5.64,4.05,10.8a11.59,11.59,0,0,1-2.14,7.23,10,10,0,0,1-4,3.33,13.05,13.05,0,0,1,6,4.29,14.9,14.9,0,0,1,2.46,8.34,16.46,16.46,0,0,1-5.32,12.07c-4.52,4.12-9.69,4.6-14,4.6-5.16,0-10.8-.79-15.49-5.48a22.29,22.29,0,0,1-5.87-13.1H15.84a10.06,10.06,0,0,0,2.54,6,8.24,8.24,0,0,0,5.87,2.14,7.86,7.86,0,0,0,5.32-1.83,7.6,7.6,0,0,0,2.15-5.4,6.57,6.57,0,0,0-2.31-5.08c-1.9-1.51-4.68-1.67-6.51-1.67H22V69h.71c.72,0,3.58-.08,5.32-1.51a6.17,6.17,0,0,0,2-4.76,5.78,5.78,0,0,0-1.75-4.29,6.68,6.68,0,0,0-4.52-1.59,6.65,6.65,0,0,0-4.77,1.75A8.39,8.39,0,0,0,17,63.51Z"/><path class="cls-1" d="M85.31,47.79l-14,17.39a15.92,15.92,0,0,1,5.56-.88c6.67,0,10.8,2.7,13.1,5.09a16.94,16.94,0,0,1,4.6,12.22c0,5.08-1.58,10.48-5,14.22-4.84,5.24-11.59,6-16.28,6s-11.9-.48-17.15-6.19c-3.49-3.73-4.6-8.18-4.6-12.87,0-8.41,4-14.37,8.5-20.32l12.14-16Zm-6,41.6a9.23,9.23,0,0,0,2.78-7,8.35,8.35,0,0,0-2.78-6.51,9.29,9.29,0,0,0-6.35-2.23,8.59,8.59,0,0,0-9.13,9,8.52,8.52,0,0,0,2.7,6.6,9.29,9.29,0,0,0,6.43,2.46A9.1,9.1,0,0,0,79.28,89.39Z"/><path class="cls-1" d="M107.23,100.59,111,77.05h4.52l5.86,14.08,5.86-14.08h4.51l3.78,23.54H130.1l-1.88-14-5.89,14h-1.9l-5.9-14-1.87,14Z"/><path class="cls-1" d="M152.89,81.64H145v4.55h7.48v4.59H145V96h7.86v4.59h-13.3V77.05h13.3Z"/><path class="cls-1" d="M169.45,82.81a5.76,5.76,0,0,0-4-1.7,3,3,0,0,0-2.29.81,2.14,2.14,0,0,0-.6,1.48,1.67,1.67,0,0,0,.53,1.31,9.45,9.45,0,0,0,3,1.34l1.77.67a9.56,9.56,0,0,1,3.21,1.8,5.87,5.87,0,0,1,1.73,4.38,8.46,8.46,0,0,1-2.08,5.82c-2.08,2.19-5.12,2.4-6.67,2.4a10,10,0,0,1-4.66-1,15,15,0,0,1-3.46-2.57l2.82-3.89a14.19,14.19,0,0,0,2.19,1.8,5.44,5.44,0,0,0,3,.85,3.77,3.77,0,0,0,2.47-.81,2.44,2.44,0,0,0,.84-1.91,2.05,2.05,0,0,0-.81-1.69,11.5,11.5,0,0,0-2.75-1.31l-1.94-.67a7.89,7.89,0,0,1-3.28-1.87A5.75,5.75,0,0,1,157,84a7.22,7.22,0,0,1,2-5.29,7.57,7.57,0,0,1,5.82-2.16,11.41,11.41,0,0,1,7,2.33Z"/><path class="cls-1" d="M190,81.64h-7.87v4.55h7.48v4.59h-7.48V96H190v4.59h-13.3V77.05H190Z"/><path class="cls-1" d="M206.57,82.81a5.73,5.73,0,0,0-3.95-1.7,3,3,0,0,0-2.29.81,2.1,2.1,0,0,0-.6,1.48,1.63,1.63,0,0,0,.53,1.31,9.34,9.34,0,0,0,3,1.34l1.77.67a9.56,9.56,0,0,1,3.21,1.8,5.91,5.91,0,0,1,1.73,4.38,8.42,8.42,0,0,1-2.09,5.82c-2.08,2.19-5.11,2.4-6.67,2.4a10,10,0,0,1-4.65-1,15,15,0,0,1-3.46-2.57l2.82-3.89a13.74,13.74,0,0,0,2.19,1.8,5.43,5.43,0,0,0,3,.85,3.74,3.74,0,0,0,2.47-.81,2.45,2.45,0,0,0,.85-1.91,2.08,2.08,0,0,0-.81-1.69,11.68,11.68,0,0,0-2.75-1.31l-1.95-.67a8,8,0,0,1-3.28-1.87A5.79,5.79,0,0,1,194.15,84a7.23,7.23,0,0,1,2-5.29A7.56,7.56,0,0,1,202,76.52a11.43,11.43,0,0,1,7,2.33Z"/><path class="cls-1" d="M5.51,131.14a7.22,7.22,0,0,0,4.74,2.11,2.73,2.73,0,0,0,2.08-.71,1.86,1.86,0,0,0,.53-1.3,1.62,1.62,0,0,0-.59-1.24,7.46,7.46,0,0,0-2.67-1.09l-1.39-.43a6.8,6.8,0,0,1-3-1.68,5.2,5.2,0,0,1-1.18-3.65,6.81,6.81,0,0,1,1.89-5,7.34,7.34,0,0,1,5.31-2,14.54,14.54,0,0,1,6.38,1.67l-2.14,4.19A5.44,5.44,0,0,0,12,120.67a2.6,2.6,0,0,0-1.77.61,1.54,1.54,0,0,0-.52,1.12,1.42,1.42,0,0,0,.27.93,3.39,3.39,0,0,0,1.8.93l1.65.5a8,8,0,0,1,3.75,2,4.91,4.91,0,0,1,1.33,3.69,7,7,0,0,1-1.95,5.21c-1.77,1.77-3.91,2.11-6.11,2.11a11,11,0,0,1-4.06-.68,14.65,14.65,0,0,1-3.13-1.64Z"/><path class="cls-1" d="M27.21,116.67v20.68H21.85V116.67Z"/><path class="cls-1" d="M31.55,137.35V116.67h5.36l9.89,12.65V116.67h5.37v20.68H46.8L36.91,124.7v12.65Z"/><path class="cls-1" d="M69.09,116.67v20.68H63.73V116.67Z"/><path class="cls-1" d="M73.43,137.35V116.67h5.36l9.89,12.65V116.67h5.37v20.68H88.68L78.79,124.7v12.65Z"/><path class="cls-1" d="M106.2,121.22v16.13h-5.37V121.22h-4.4v-4.55H110.6v4.55Z"/><path class="cls-1" d="M124.74,121.22h-6.39v3.44h6.05v4.56h-6.05v3.57h6.39v4.56H113V116.67h11.75Z"/><path class="cls-1" d="M136.52,116.67a6.67,6.67,0,0,1,5,1.82,6.81,6.81,0,0,1,1.77,4.66,6,6,0,0,1-1.65,4.31,5.75,5.75,0,0,1-2.85,1.42l6.48,8.47h-6.66l-5.15-7.94v7.94h-5.37V116.67Zm-3,9.27h1a4.06,4.06,0,0,0,2.61-.84,2.59,2.59,0,0,0,.68-1.74,2.4,2.4,0,0,0-.72-1.73,3.6,3.6,0,0,0-2.57-.81h-1Z"/><path class="cls-1" d="M159.33,121.22H153v3.44h6v4.56h-6v3.57h6.38v4.56H147.58V116.67h11.75Z"/><path class="cls-1" d="M164.1,131.14a7.25,7.25,0,0,0,4.75,2.11,2.76,2.76,0,0,0,2.08-.71,1.85,1.85,0,0,0,.52-1.3,1.58,1.58,0,0,0-.59-1.24,7.4,7.4,0,0,0-2.66-1.09l-1.4-.43a6.71,6.71,0,0,1-3-1.68,5.15,5.15,0,0,1-1.18-3.65,6.77,6.77,0,0,1,1.89-5,7.3,7.3,0,0,1,5.3-2,14.59,14.59,0,0,1,6.39,1.67l-2.14,4.19a5.44,5.44,0,0,0-3.54-1.39,2.58,2.58,0,0,0-1.76.61,1.55,1.55,0,0,0-.53,1.12,1.37,1.37,0,0,0,.28.93,3.34,3.34,0,0,0,1.8.93l1.64.5a7.91,7.91,0,0,1,3.75,2,4.87,4.87,0,0,1,1.33,3.69,7,7,0,0,1-1.95,5.21c-1.77,1.77-3.91,2.11-6.11,2.11a11,11,0,0,1-4.06-.68,14.9,14.9,0,0,1-3.13-1.64Z"/><path class="cls-1" d="M192.19,121.22H185.8v3.44h6v4.56h-6v3.57h6.39v4.56H180.44V116.67h11.75Z"/><path class="cls-1" d="M197,131.14a7.25,7.25,0,0,0,4.75,2.11,2.76,2.76,0,0,0,2.08-.71,1.85,1.85,0,0,0,.52-1.3,1.58,1.58,0,0,0-.59-1.24,7.4,7.4,0,0,0-2.66-1.09l-1.4-.43a6.71,6.71,0,0,1-3-1.68,5.15,5.15,0,0,1-1.18-3.65,6.77,6.77,0,0,1,1.89-5,7.3,7.3,0,0,1,5.3-2,14.59,14.59,0,0,1,6.39,1.67L207,122.06a5.44,5.44,0,0,0-3.54-1.39,2.58,2.58,0,0,0-1.76.61,1.55,1.55,0,0,0-.53,1.12,1.37,1.37,0,0,0,.28.93,3.34,3.34,0,0,0,1.8.93l1.64.5a7.91,7.91,0,0,1,3.75,2,4.88,4.88,0,0,1,1.34,3.69,7,7,0,0,1-2,5.21c-1.77,1.77-3.91,2.11-6.11,2.11a11,11,0,0,1-4.06-.68,14.9,14.9,0,0,1-3.13-1.64Z"/><path class="cls-1" d="M7.09,20.5h12V11h2.6V34.41h-2.6V23h-12V34.41H4.49V11h2.6Z"/><path class="cls-1" d="M40.68,27.8h-10l-2.81,6.61H25L35.8,9.85,46.3,34.41H43.42Zm-1-2.46L35.73,16l-4,9.38Z"/><path class="cls-1" d="M59.69,15.61a5.8,5.8,0,0,0-1.37-1.76,4.24,4.24,0,0,0-2.64-.8c-2.32,0-3.93,1.44-3.93,3.62a2.42,2.42,0,0,0,.88,2,7.55,7.55,0,0,0,2.46,1.48l2.25,1A11.36,11.36,0,0,1,61,23.38a5.61,5.61,0,0,1,1.69,4.25c0,4.32-3.2,7.2-7.41,7.2a7,7,0,0,1-5.1-1.89A8.59,8.59,0,0,1,48,28.79l2.53-.7a5.52,5.52,0,0,0,1.41,3A4.8,4.8,0,0,0,60,27.73,3.52,3.52,0,0,0,58.81,25,10.26,10.26,0,0,0,56,23.38l-2.11-1a10.43,10.43,0,0,1-3.13-1.93,4.85,4.85,0,0,1-1.61-3.83c0-3.62,2.77-6,6.57-6a6.37,6.37,0,0,1,3.76,1.05,7,7,0,0,1,2.28,2.6Z"/><path class="cls-1" d="M71.7,13.43v21H69.1v-21H63.41V11h14v2.46Z"/><path class="cls-1" d="M92.26,27.8h-10l-2.81,6.61H76.59L87.38,9.85l10.5,24.56H95Zm-1-2.46L87.31,16l-4,9.38Z"/></svg>