<svg width="380" height="100" viewBox="0 0 380 100" fill="none" xmlns="http://www.w3.org/2000/svg">
<g clip-path="url(#clip0_1311_151)">
<path d="M152.361 41.9124C150.232 40.7638 148.575 39.182 147.35 37.1672C146.144 35.1524 145.523 32.8551 145.523 30.313C145.523 27.7709 146.126 25.4736 147.35 23.4588C148.556 21.4439 150.232 19.8622 152.361 18.7136C154.49 17.5649 156.863 17 159.52 17C161.742 17 163.777 17.3954 165.567 18.1863C167.356 18.9772 168.882 20.107 170.107 21.5757L166.283 25.1158C164.549 23.101 162.383 22.103 159.802 22.103C158.201 22.103 156.788 22.4608 155.526 23.1575C154.283 23.8542 153.303 24.8334 152.606 26.0762C151.909 27.319 151.551 28.7501 151.551 30.3506C151.551 31.9512 151.909 33.3635 152.606 34.6063C153.303 35.8491 154.283 36.8282 155.526 37.525C156.769 38.2217 158.201 38.5795 159.802 38.5795C162.383 38.5795 164.531 37.5626 166.283 35.529L170.107 39.0502C168.882 40.5378 167.356 41.6864 165.548 42.4773C163.739 43.2682 161.705 43.6448 159.482 43.6448C156.863 43.6448 154.49 43.0799 152.361 41.9312V41.9124Z" fill="#003A70"/>
<path d="M190.565 37.6756H178.603L176.323 43.1929H170.22L181.692 17.4331H187.57L199.08 43.174H192.826L190.546 37.6568L190.565 37.6756ZM188.681 33.1564L184.593 23.3081L180.505 33.1564H188.681Z" fill="#003A70"/>
<path d="M218.879 18.5818C220.556 19.335 221.855 20.4271 222.76 21.8206C223.664 23.214 224.116 24.8711 224.116 26.7917C224.116 28.7124 223.664 30.3318 222.76 31.7441C221.855 33.1564 220.556 34.2297 218.879 34.9829C217.202 35.7361 215.224 36.1127 212.945 36.1127H207.764V43.2117H201.812V17.4331H212.964C215.243 17.4331 217.221 17.8097 218.898 18.5818H218.879ZM216.694 30.0682C217.617 29.2962 218.088 28.204 218.088 26.7729C218.088 25.3418 217.617 24.212 216.694 23.44C215.752 22.6679 214.396 22.2725 212.606 22.2725H207.746V31.198H212.606C214.396 31.198 215.752 30.8026 216.694 30.0305V30.0682Z" fill="#003A70"/>
<path d="M245.743 22.2913H237.51V17.4331H259.947V22.2913H251.714V43.174H245.761V22.2913H245.743Z" fill="#003A70"/>
<path d="M278.823 37.6756H266.86L264.581 43.1929H258.477L269.95 17.4331H275.827L287.338 43.174H281.083L278.804 37.6568L278.823 37.6756ZM276.939 33.1564L272.851 23.3081L268.763 33.1564H276.939Z" fill="#003A70"/>
<path d="M290.031 17.4331H295.984V38.3158H308.888V43.174H290.012V17.4331H290.031Z" fill="#003A70"/>
<path d="M228.336 17H234.289V43.174H228.336V17Z" fill="#003A70"/>
<path d="M151.212 81.5313C149.441 80.5521 148.047 79.2152 147.049 77.5016C146.05 75.7881 145.542 73.8674 145.542 71.7207C145.542 69.5741 146.05 67.6534 147.049 65.9398C148.047 64.2263 149.46 62.8893 151.231 61.9102C153.02 60.931 155.017 60.4414 157.221 60.4414C158.936 60.4414 160.518 60.7239 161.95 61.3076C163.381 61.8913 164.587 62.7387 165.604 63.8685L163.551 65.8457C161.893 64.0945 159.821 63.2283 157.353 63.2283C155.714 63.2283 154.226 63.5861 152.907 64.3204C151.589 65.0548 150.552 66.0716 149.799 67.3521C149.045 68.6514 148.688 70.0825 148.688 71.6831C148.688 73.2836 149.064 74.7147 149.799 76.014C150.552 77.3133 151.57 78.3113 152.907 79.0457C154.226 79.7801 155.714 80.1567 157.353 80.1567C159.802 80.1567 161.874 79.2716 163.551 77.5204L165.604 79.4976C164.606 80.6274 163.381 81.4936 161.931 82.0774C160.499 82.6611 158.917 82.9624 157.184 82.9624C154.979 82.9624 152.983 82.4728 151.212 81.4936V81.5313Z" fill="#003A70"/>
<path d="M187.777 81.5313C186.006 80.5521 184.612 79.2152 183.614 77.5016C182.615 75.7881 182.107 73.8674 182.107 71.7207C182.107 69.5741 182.615 67.6534 183.614 65.9398C184.612 64.2263 186.025 62.8893 187.796 61.9102C189.585 60.931 191.582 60.4414 193.786 60.4414C195.501 60.4414 197.083 60.7239 198.515 61.3076C199.947 61.8913 201.152 62.7387 202.169 63.8685L200.116 65.8457C198.458 64.0945 196.386 63.2283 193.918 63.2283C192.279 63.2283 190.791 63.5861 189.472 64.3204C188.154 65.0548 187.118 66.0716 186.364 67.3521C185.611 68.6514 185.253 70.0825 185.253 71.6831C185.253 73.2836 185.629 74.7147 186.364 76.014C187.118 77.3133 188.135 78.3113 189.472 79.0457C190.791 79.7801 192.279 80.1567 193.918 80.1567C196.367 80.1567 198.44 79.2716 200.116 77.5204L202.169 79.4976C201.171 80.6274 199.947 81.4936 198.496 82.0774C197.064 82.6611 195.482 82.9624 193.749 82.9624C191.545 82.9624 189.548 82.4728 187.777 81.4936V81.5313Z" fill="#003A70"/>
<path d="M265.391 82.7553L265.353 66.6931L257.384 80.0626H255.934L247.965 66.7684V82.7365H244.951V60.7051H247.532L256.725 76.1835L265.786 60.7051H268.367L268.405 82.7365H265.372L265.391 82.7553Z" fill="#003A70"/>
<path d="M303.35 77.2378H291.632L289.202 82.755H285.962L295.946 60.7236H299.074L309.096 82.755H305.78L303.35 77.2378ZM302.238 74.7145L297.491 63.9248L292.744 74.7145H302.257H302.238Z" fill="#003A70"/>
<path d="M220.932 60.7051H224.078V82.7365H220.932V60.7051Z" fill="#003A70"/>
<path d="M309.981 50.5366H146.691V52.5891H309.981V50.5366Z" fill="#D7282F"/>
<path d="M125.611 52.0808V62.5316C125.611 63.4731 125.083 64.3205 124.254 64.7347L102.025 75.9764C101.328 76.3341 100.499 76.3341 99.7833 75.9764L77.5541 64.7347C76.7252 64.3205 76.1978 63.4543 76.1978 62.5316V49.727L81.9811 45.8668C82.2637 45.6785 82.6405 45.6785 82.923 45.8668L108.336 62.814C109.636 63.6802 111.35 63.5108 112.461 62.3998L124.217 50.6497L125.629 52.062L125.611 52.0808Z" fill="#596F99"/>
<path d="M124.198 30.9722L125.611 32.3844V46.7519H120.279L121.711 48.183L110.596 59.2929C110.314 59.5753 109.862 59.613 109.542 59.4058L88.7817 45.5656L100.104 38.0147C100.386 37.8264 100.763 37.8264 101.045 38.0147L109.598 43.7202C110.257 44.1533 111.124 44.078 111.689 43.5131L124.217 30.991L124.198 30.9722Z" fill="#335384"/>
<path d="M125.611 26.02V27.0745H120.279L121.711 28.5056L110.728 39.4648C110.446 39.7472 110.031 39.7849 109.692 39.5589L102.364 34.6819C101.272 33.9475 99.8399 33.9475 98.7473 34.6819L85.5981 43.4568L84.2418 42.5529C83.1492 41.8186 81.7175 41.8186 80.606 42.5529L76.1602 45.5093V26.02C76.1602 24.6454 77.2716 23.5532 78.628 23.5532H123.105C124.066 23.5532 124.895 24.0993 125.309 24.8902C125.479 25.2291 125.592 25.6245 125.592 26.02H125.611Z" fill="#003A70"/>
<path d="M126.854 17.3579H74.9356C72.2041 17.3579 70 19.561 70 22.2914V64.6971C70 66.5613 71.0549 68.2749 72.7127 69.1034L98.6719 82.1339C100.066 82.8307 101.705 82.8307 103.099 82.1339L129.058 69.1034C130.716 68.2749 131.771 66.5613 131.771 64.6971V22.2914C131.771 19.561 129.567 17.3579 126.835 17.3579H126.854ZM129.717 63.6803C129.717 65.2244 128.87 66.6367 127.495 67.3522L102.797 80.1944C101.592 80.8158 100.179 80.8158 98.9733 80.1944L74.2763 67.3522C72.9011 66.6367 72.0534 65.2244 72.0534 63.6803V23.5531C72.0534 21.2746 73.8995 19.4292 76.179 19.4292H125.573C126.986 19.4292 128.229 20.1448 128.983 21.2181C129.435 21.8772 129.717 22.6869 129.717 23.5531V63.6991V63.6803Z" fill="#D7282F"/>
</g>
<defs>
<clipPath id="clip0_1311_151">
<rect width="240" height="66" fill="white" transform="translate(70 17)"/>
</clipPath>
</defs>
</svg>
