<svg width="380" height="100" viewBox="0 0 380 100" fill="none" xmlns="http://www.w3.org/2000/svg">
<g clip-path="url(#clip0_1311_153)">
<path d="M31.6007 42.9894C32.5765 40.9729 33.9301 39.429 35.6613 38.3578C37.3926 37.2865 39.3442 36.7193 41.5162 36.7193C44.1603 36.7193 46.3952 37.3495 48.2839 38.6413C50.1726 39.9332 51.5576 41.6661 52.4389 43.8716H61.0323C59.9621 39.3345 57.7272 35.7741 54.3591 33.1274C50.991 30.4808 46.7415 29.189 41.6421 29.189C37.7074 29.189 34.2448 30.0712 31.2545 31.8041C28.2641 33.5686 25.9662 36.0262 24.3294 39.2085C23.1332 41.5085 22.4092 43.9977 22.063 46.7073H30.4361C30.6879 45.3525 31.0341 44.1237 31.6007 42.9894Z" fill="#3176BB"/>
<path d="M48.2839 61.4847C46.3952 62.7765 44.1603 63.4066 41.5162 63.4066C39.3442 63.4066 37.3926 62.871 35.6613 61.7682C33.93 60.697 32.5765 59.1531 31.6007 57.1366C31.0026 55.8763 30.5934 54.4899 30.3731 52.9775H22C22.3148 55.8763 23.0702 58.5229 24.3293 60.9175C25.9662 64.0998 28.2955 66.5574 31.2859 68.3219C34.2763 70.0863 37.7388 70.9685 41.6421 70.9685C46.7415 70.9685 50.9909 69.6452 54.3591 67.0301C57.7272 64.3834 59.9621 60.823 61.0323 56.2859H52.4389C51.5575 58.4914 50.1725 60.2243 48.2839 61.5162V61.4847Z" fill="#3176BB"/>
<path d="M96.791 31.6782C99.9073 33.4741 102.363 35.9317 104.157 39.1455C105.951 42.3278 106.864 45.9512 106.864 49.9842C106.864 54.0173 105.951 57.6407 104.157 60.8545C102.363 64.0683 99.9073 66.5574 96.791 68.3533C93.6747 70.1493 90.2121 71.0315 86.3719 71.0315C82.5316 71.0315 79.069 70.1493 75.9527 68.3533C72.8364 66.5574 70.3812 64.0683 68.587 60.8545C66.7927 57.6407 65.8799 54.0173 65.8799 49.9842C65.8799 45.9512 66.7927 42.3593 68.587 39.1455C70.3812 35.9632 72.8364 33.4741 75.9527 31.6782C79.069 29.8822 82.5316 29 86.3719 29C90.2121 29 93.6747 29.8822 96.791 31.6782ZM80.0448 38.1688C78.2191 39.2401 76.8026 40.8155 75.7639 42.832C74.7251 44.8485 74.2215 47.2431 74.2215 49.9527C74.2215 52.6624 74.7251 55.0255 75.7639 57.0735C76.8026 59.1215 78.2191 60.6654 80.0448 61.7367C81.8705 62.808 83.9795 63.3751 86.3719 63.3751C88.7642 63.3751 90.8732 62.8395 92.6989 61.7367C94.5246 60.6654 95.9411 59.09 96.9798 57.0735C98.0186 55.057 98.5222 52.6624 98.5222 49.9527C98.5222 47.2431 98.0186 44.88 96.9798 42.832C95.9411 40.7839 94.5246 39.2401 92.6989 38.1688C90.8732 37.0975 88.7642 36.5304 86.3719 36.5304C83.9795 36.5304 81.8705 37.066 80.0448 38.1688Z" fill="#002856"/>
<path d="M147.722 70.5904H139.538L121.186 42.7059V70.5904H113.002V29.5986H121.186L139.538 57.7037V29.5986H147.722V70.6219V70.5904Z" fill="#002856"/>
<path d="M181.749 65.171C180.71 66.9355 179.168 68.3533 177.122 69.4246C175.076 70.4958 172.589 71.0315 169.63 71.0315C166.671 71.0315 164.122 70.5274 161.855 69.5506C159.557 68.5739 157.732 67.1245 156.378 65.2655C154.993 63.4066 154.238 61.2325 154.017 58.7749H162.737C162.925 60.4448 163.586 61.8312 164.751 62.934C165.916 64.0367 167.427 64.6039 169.315 64.6039C171.015 64.6039 172.337 64.1628 173.219 63.249C174.1 62.3353 174.572 61.1695 174.572 59.7202C174.572 58.4283 174.194 57.3886 173.47 56.5694C172.747 55.7502 171.802 55.057 170.669 54.5529C169.536 54.0487 167.993 53.4816 166.042 52.8199C163.492 51.9692 161.415 51.1185 159.778 50.2993C158.141 49.4801 156.756 48.2513 155.623 46.6759C154.489 45.1005 153.923 43.021 153.923 40.4688C153.923 36.94 155.182 34.1673 157.732 32.1193C160.25 30.0712 163.618 29.063 167.805 29.063C171.991 29.063 175.579 30.1027 178.161 32.2138C180.742 34.2933 182.19 37.0975 182.536 40.5634H173.722C173.502 39.0825 172.872 37.8852 171.865 36.94C170.858 35.9947 169.473 35.5221 167.742 35.5221C166.231 35.5221 165.003 35.9317 164.09 36.7194C163.146 37.5071 162.705 38.6729 162.705 40.1853C162.705 41.3826 163.051 42.3908 163.775 43.1785C164.499 43.9662 165.412 44.6279 166.514 45.132C167.616 45.6361 169.127 46.2033 171.015 46.8334C173.628 47.7472 175.768 48.6294 177.437 49.4486C179.074 50.2678 180.49 51.4966 181.655 53.1035C182.819 54.7419 183.386 56.8529 183.386 59.4996C183.386 61.5791 182.851 63.5326 181.812 65.2655L181.749 65.171Z" fill="#002856"/>
<path d="M217.193 29.5986V36.0893H205.861V70.5904H197.677V36.0893H186.408V29.5986H217.162H217.193Z" fill="#002856"/>
<path d="M243.099 70.5904L233.53 54.6159H229.942V70.5904H221.757V29.5986H237.37C242.123 29.5986 245.743 30.7644 248.262 33.096C250.748 35.4276 252.007 38.4839 252.007 42.2648C252.007 45.3526 251.157 47.9677 249.426 50.0472C247.695 52.1268 245.208 53.5446 241.966 54.2378L252.196 70.6219H243.131L243.099 70.5904ZM229.942 48.976H236.678C241.368 48.976 243.697 46.8965 243.697 42.7689C243.697 40.7839 243.131 39.24 241.997 38.1373C240.864 37.0345 239.07 36.4673 236.678 36.4673H229.942V48.9445V48.976Z" fill="#002856"/>
<path d="M265.385 29.5986V53.6391C265.385 56.8529 266.078 59.2791 267.494 60.886C268.911 62.4929 270.957 63.2806 273.633 63.2806C276.308 63.2806 278.291 62.4929 279.708 60.886C281.124 59.2791 281.817 56.8529 281.817 53.6391V29.5986H289.938V53.6391C289.938 57.4201 289.245 60.6339 287.829 63.249C286.412 65.8642 284.461 67.8177 281.974 69.078C279.487 70.3698 276.654 71 273.475 71C268.565 71 264.63 69.5191 261.703 66.5889C258.775 63.6587 257.296 59.3421 257.296 53.6391V29.5986H265.417H265.385Z" fill="#002856"/>
<path d="M330.166 29.5986L316.285 56.2543V70.5904H308.038V56.2543L294.093 29.5986H303.505L312.224 47.5581L320.943 29.5986H330.166Z" fill="#002856"/>
<path d="M357.269 46.7075H334.573V52.9776H357.269V46.7075Z" fill="#3176BB"/>
<path d="M359 64.0366H334.573V70.5903H359V64.0366Z" fill="#3176BB"/>
<path d="M359 29.5986H334.573V36.0893H359V29.5986Z" fill="#3176BB"/>
</g>
<defs>
<clipPath id="clip0_1311_153">
<rect width="337" height="42" fill="white" transform="translate(22 29)"/>
</clipPath>
</defs>
</svg>
