<svg width="457" height="152" viewBox="0 0 457 152" fill="none" xmlns="http://www.w3.org/2000/svg">
<g clip-path="url(#clip0_221_651)">
<path d="M151.922 44.7445L127.393 107.334L109.921 152H87.2812L73.8231 107.334L54.9607 44.7445L51.4191 32.9613L46.8805 44.7445L22.6401 107.334H0L24.2404 44.7445L41.5288 0.0524862L41.555 0H64.1951L77.627 44.7445L96.4632 107.334L100.057 119.327L104.753 107.334L129.282 44.7445H151.922Z" fill="#002C55"/>
<path d="M260.427 44.7441H298.204V54.6903H273.36V70.856H292.406V80.6709H273.36V97.0991H300.827V107.308H260.427V44.7441Z" fill="#1F49B6"/>
<path d="M322.68 54.6903H304.92V44.7441H353.348V54.6903H335.798V107.36H322.68V54.6903Z" fill="#1F49B6"/>
<path d="M362.32 44.7441H400.098V54.6903H375.28V70.856H394.326V80.6709H375.28V97.0991H402.747V107.308H362.32V44.7441Z" fill="#1F49B6"/>
<path d="M409.778 75.921C409.719 71.4364 410.52 66.982 412.139 62.7995C413.583 59.0994 415.791 55.7458 418.619 52.9583C421.481 50.2256 424.861 48.0952 428.561 46.6933C432.261 45.2914 436.204 44.6464 440.157 44.7967C444.82 44.775 449.466 45.3482 453.983 46.5025C455.006 46.7912 456.029 47.0274 457 47.2111L455.111 58.6006C451.076 56.2042 446.448 54.9945 441.758 55.1103C439.068 55.0442 436.392 55.5171 433.887 56.5011C431.763 57.3728 429.849 58.688 428.273 60.3589C424.65 64.5167 422.771 69.9127 423.026 75.4224C422.76 81.0932 424.517 86.674 427.985 91.1683C429.659 93.2017 431.78 94.821 434.183 95.8998C436.585 96.9786 439.205 97.4879 441.836 97.3879C445.97 97.3433 450.051 96.4501 453.825 94.7636C454.658 94.4352 455.45 94.0125 456.186 93.5039V104.001C453.173 105.293 450.022 106.235 446.795 106.809C444.725 107.088 442.639 107.237 440.551 107.255C436.39 107.451 432.234 106.785 428.343 105.3C424.452 103.814 420.909 101.54 417.937 98.6213C415.139 95.5686 412.977 91.9891 411.576 88.0918C410.175 84.1944 409.564 80.0571 409.778 75.921Z" fill="#1F49B6"/>
<path d="M193.766 44.7715H207.644L219.213 78.8875L222.492 90.8019L225.824 78.8875L236.79 44.7715H250.589L227.791 107.388H216.799L193.766 44.7715Z" fill="#1F49B6"/>
<path d="M201.085 107.386H187.207L175.664 73.2704L172.359 61.356L169.027 73.2441L158.087 107.36H144.288L167.059 44.7441H178.052L201.085 107.386Z" fill="#1F49B6"/>
</g>
<defs>
<clipPath id="clip0_221_651">
<rect width="457" height="152" fill="white"/>
</clipPath>
</defs>
</svg>
