<svg width="175" height="58" viewBox="0 0 175 58" fill="none" xmlns="http://www.w3.org/2000/svg">
<path d="M57.91 17.05L48.56 40.9L41.9 57.92H33.27L28.14 40.9L20.95 17.05L19.6 12.56L17.87 17.05L8.63 40.9H0L9.24 17.05L15.83 0.02L15.84 0H24.47L29.59 17.05L36.77 40.9L38.14 45.47L39.93 40.9L49.28 17.05H57.91Z" fill="#002C55"/>
<path d="M99.2695 17.0508H113.67V20.8408H104.2V27.0008H111.46V30.7408H104.2V37.0008H114.67V40.8908H99.2695V17.0508Z" fill="#1F49B6"/>
<path d="M123 20.8408H116.23V17.0508H134.69V20.8408H128V40.9108H123V20.8408Z" fill="#1F49B6"/>
<path d="M138.11 17.0508H152.51V20.8408H143.05V27.0008H150.31V30.7408H143.05V37.0008H153.52V40.8908H138.11V17.0508Z" fill="#1F49B6"/>
<path d="M156.2 28.9306C156.177 27.2217 156.482 25.5244 157.1 23.9306C157.65 22.5207 158.491 21.2428 159.57 20.1806C160.66 19.1393 161.949 18.3275 163.359 17.7933C164.769 17.2591 166.273 17.0134 167.78 17.0706C169.557 17.0624 171.328 17.2808 173.05 17.7206C173.44 17.8306 173.83 17.9206 174.2 17.9906L173.48 22.3306C171.942 21.4175 170.177 20.9565 168.39 21.0006C167.364 20.9755 166.344 21.1557 165.39 21.5306C164.58 21.8628 163.85 22.3639 163.25 23.0006C161.868 24.585 161.152 26.6411 161.25 28.7406C161.148 30.9015 161.818 33.0281 163.14 34.7406C163.778 35.5155 164.586 36.1325 165.502 36.5436C166.418 36.9547 167.416 37.1487 168.42 37.1106C169.995 37.0936 171.551 36.7533 172.99 36.1106C173.307 35.9855 173.609 35.8244 173.89 35.6306V39.6306C172.741 40.123 171.54 40.482 170.31 40.7006C169.52 40.8068 168.726 40.8635 167.93 40.8706C166.344 40.9453 164.759 40.6916 163.276 40.1254C161.793 39.5593 160.442 38.693 159.31 37.5806C158.243 36.4174 157.419 35.0534 156.885 33.5683C156.351 32.0832 156.118 30.5067 156.2 28.9306Z" fill="#1F49B6"/>
<path d="M73.8604 17.0605H79.1504L83.5603 30.0605L84.8103 34.6005L86.0804 30.0605L90.2604 17.0605H95.5203L86.8304 40.9205H82.6404L73.8604 17.0605Z" fill="#1F49B6"/>
<path d="M76.65 40.9208H71.36L66.96 27.9208L65.7 23.3808L64.43 27.9108L60.26 40.9108H55L63.68 17.0508H67.87L76.65 40.9208Z" fill="#1F49B6"/>
</svg>
