<svg width="67" height="67" viewBox="0 0 67 67" fill="none" xmlns="http://www.w3.org/2000/svg">
<g clip-path="url(#clip0_1528_65)">
<path d="M67 19.7514L56.1561 47.2486L48.4104 67H38.4701L32.5318 47.2486L24.2697 19.7514L22.7206 14.5877L20.6551 19.7514L9.94027 47.2486H0L10.7148 19.7514L18.3314 0H28.2717L34.21 19.7514L42.4721 47.2486L44.1503 52.5414L46.2158 47.2486L56.9306 19.7514H67Z" fill="#002856"/>
<path d="M54.3482 62.7402C54.7355 62.7402 54.9937 62.8693 55.1228 62.9984C55.51 63.2566 55.51 63.5148 55.51 63.773C55.51 64.0312 55.3809 64.4185 55.1228 64.5476C54.9937 64.5476 54.8646 64.6767 54.7355 64.6767L55.7682 66.0967H54.9937L54.09 64.8057H53.9609V66.0967H53.3154V62.8693H54.3482V62.7402ZM54.09 64.2894H54.2191C54.3482 64.2894 54.8646 64.2894 54.8646 63.773C54.8646 63.2566 54.3482 63.2566 54.2191 63.2566H54.09V64.2894Z" fill="#002856"/>
<path d="M54.4774 66.9997C53.0574 66.9997 51.8955 65.8379 51.8955 64.4178C51.8955 62.9978 53.0574 61.8359 54.4774 61.8359C55.8974 61.8359 57.0593 62.9978 57.0593 64.4178C57.0593 65.8379 55.8974 66.9997 54.4774 66.9997ZM54.4774 62.2232C53.3155 62.2232 52.2828 63.1269 52.2828 64.4178C52.2828 65.7088 53.1865 66.6124 54.4774 66.6124C55.6392 66.6124 56.672 65.7088 56.672 64.4178C56.672 63.1269 55.6392 62.2232 54.4774 62.2232Z" fill="#002856"/>
</g>
<defs>
<clipPath id="clip0_1528_65">
<rect width="67" height="67" fill="white"/>
</clipPath>
</defs>
</svg>
