<svg width="296" height="100" viewBox="0 0 296 100" fill="none" xmlns="http://www.w3.org/2000/svg">
<rect x="0.5" y="0.5" width="295" height="99" fill="white" stroke="#021D49"/>
<g clip-path="url(#clip0_221_802)">
<path d="M172.312 27.7301H176.372C177.651 27.6737 178.93 27.871 180.134 28.311C180.991 28.6859 181.716 29.3127 182.215 30.1098C182.719 30.9173 182.983 31.8536 182.976 32.8079C182.986 33.6939 182.755 34.5655 182.307 35.3281C181.835 36.1238 181.153 36.7723 180.338 37.2018C181.235 37.472 182.073 37.9106 182.809 38.4947C183.387 38.9802 183.848 39.5922 184.156 40.2841C184.482 40.9974 184.647 41.7751 184.639 42.5607C184.65 43.354 184.494 44.1407 184.182 44.8689C183.87 45.5971 183.408 46.2505 182.828 46.7859C181.497 47.9702 179.76 48.5823 177.988 48.491H172.34L172.312 27.7301ZM174.328 29.81V36.368H175.499C176.567 36.4221 177.636 36.2857 178.657 35.9652C179.301 35.7199 179.855 35.2829 180.246 34.7123C180.638 34.1417 180.848 33.4644 180.849 32.7705C180.855 32.3513 180.768 31.936 180.595 31.555C180.421 31.1741 180.165 30.8371 179.846 30.5688C178.91 29.9758 177.807 29.7091 176.706 29.81H174.328ZM174.328 38.5415V46.5049H176.873C177.996 46.5617 179.12 46.4125 180.19 46.0646C180.874 45.7761 181.459 45.2906 181.871 44.6686C182.327 44.0032 182.55 43.2032 182.505 42.3955C182.459 41.5877 182.148 40.8183 181.62 40.2092C180.958 39.4952 180.096 39.0017 179.149 38.7945C177.94 38.5886 176.715 38.5039 175.489 38.5415H174.328Z" fill="#15234A"/>
<path d="M188.781 27.7305H190.843V40.2657C190.816 41.2034 190.843 42.142 190.927 43.0763C191.001 43.8092 191.243 44.5147 191.633 45.1374C192.078 45.7427 192.674 46.218 193.361 46.5146C194.086 46.8774 194.883 47.0696 195.692 47.0767C196.37 47.0758 197.039 46.9255 197.652 46.6364C198.263 46.3642 198.801 45.9501 199.222 45.4278C199.658 44.8758 199.975 44.2374 200.151 43.5541C200.334 42.484 200.405 41.3976 200.365 40.3125V27.7305H202.417V40.2657C202.462 41.7834 202.28 43.2993 201.879 44.7626C201.483 45.9565 200.73 46.9973 199.724 47.7419C198.602 48.6036 197.222 49.0531 195.813 49.016C194.305 49.0553 192.82 48.6376 191.549 47.8168C190.397 47.0802 189.541 45.9547 189.134 44.6409C188.817 43.2057 188.689 41.7346 188.753 40.2657L188.781 27.7305Z" fill="#15234A"/>
<path d="M205.353 44.6216L207.099 43.5629C208.334 45.8489 209.765 46.9919 211.372 46.9919C212.05 47.0007 212.718 46.8329 213.313 46.5047C213.869 46.2193 214.337 45.7852 214.664 45.2498C214.992 44.7144 215.167 44.0984 215.171 43.4693C215.155 42.7275 214.908 42.0097 214.465 41.4175C213.455 40.1453 212.269 39.0254 210.944 38.0917C209.772 37.2833 208.696 36.3401 207.74 35.2811C207.033 34.3758 206.647 33.2576 206.644 32.1051C206.636 31.2379 206.857 30.3841 207.285 29.6318C207.726 28.8745 208.37 28.2576 209.142 27.8517C209.922 27.4196 210.798 27.197 211.688 27.2053C212.642 27.2052 213.581 27.4571 214.409 27.9361C215.476 28.628 216.387 29.5375 217.084 30.6061L215.412 31.8896C214.865 31.0812 214.179 30.377 213.387 29.8098C212.849 29.483 212.232 29.3112 211.604 29.3132C211.232 29.2962 210.86 29.3545 210.511 29.4849C210.161 29.6152 209.841 29.8149 209.57 30.0721C209.317 30.3122 209.116 30.6028 208.98 30.9253C208.844 31.2479 208.776 31.5954 208.78 31.9458C208.779 32.3981 208.874 32.8452 209.059 33.2574C209.317 33.7759 209.663 34.2451 210.081 34.644C210.35 34.9063 211.242 35.5809 212.737 36.7145C214.168 37.6718 215.424 38.8697 216.453 40.2558C217.075 41.1775 217.42 42.2608 217.447 43.3756C217.45 44.1131 217.3 44.8432 217.007 45.5191C216.715 46.195 216.285 46.8019 215.747 47.301C215.203 47.843 214.557 48.2698 213.847 48.5562C213.137 48.8426 212.378 48.9828 211.613 48.9686C210.405 48.9861 209.219 48.6333 208.214 47.9568C207.005 47.0963 206.023 45.9515 205.353 44.6216Z" fill="#15234A"/>
<path d="M221.46 27.7305H223.504V48.4914H221.46V27.7305Z" fill="#15234A"/>
<path d="M228.25 48.4914V27.7305H228.696L242.397 43.6572V27.7305H244.422V48.4914H243.939L230.377 32.7708V48.4914H228.25Z" fill="#15234A"/>
<path d="M249.447 27.7305H261.244V29.8103H251.509V36.2653H261.161V38.2983H251.509V46.4584H261.161V48.4914H249.447V27.7305Z" fill="#15234A"/>
<path d="M262.675 44.6214L264.421 43.5627C265.657 45.8487 267.087 46.9916 268.694 46.9916C269.372 47.0005 270.041 46.8327 270.635 46.5045C271.191 46.2183 271.658 45.784 271.985 45.2487C272.313 44.7135 272.488 44.098 272.493 43.469C272.482 42.7265 272.234 42.0073 271.787 41.4173C270.777 40.1451 269.591 39.0251 268.267 38.0914C267.094 37.2831 266.019 36.3399 265.062 35.2808C264.355 34.3756 263.969 33.2574 263.966 32.1049C263.958 31.2376 264.179 30.3839 264.607 29.6316C265.052 28.8846 265.696 28.2779 266.465 27.8796C267.245 27.4373 268.124 27.205 269.019 27.2051C269.974 27.2049 270.912 27.4569 271.741 27.9358C272.808 28.6299 273.722 29.5389 274.425 30.6059L272.735 31.8894C272.187 31.0836 271.505 30.3798 270.719 29.8096C270.177 29.4829 269.557 29.3112 268.926 29.313C268.554 29.2959 268.182 29.3543 267.833 29.4846C267.483 29.615 267.164 29.8147 266.892 30.0719C266.639 30.312 266.438 30.6025 266.302 30.9251C266.166 31.2476 266.098 31.5952 266.102 31.9456C266.102 32.3978 266.197 32.845 266.381 33.2572C266.639 33.7757 266.985 34.2448 267.403 34.6438C267.672 34.9061 268.564 35.5806 270.06 36.7142C271.471 37.6781 272.712 38.8753 273.729 40.2556C274.36 41.1729 274.706 42.2589 274.723 43.3753C274.725 44.1129 274.576 44.843 274.283 45.5189C273.99 46.1948 273.561 46.8017 273.023 47.3008C272.479 47.8428 271.833 48.2696 271.123 48.556C270.413 48.8424 269.654 48.9826 268.889 48.9684C267.68 48.9859 266.495 48.6331 265.489 47.9566C264.297 47.0915 263.331 45.9469 262.675 44.6214Z" fill="#15234A"/>
<path d="M276.952 44.6216L278.698 43.5629C279.934 45.8489 281.364 46.9919 282.971 46.9919C283.649 47.0007 284.318 46.8329 284.913 46.5047C285.49 46.2154 285.971 45.7629 286.297 45.2025C286.605 44.6777 286.769 44.0793 286.771 43.4693C286.758 42.7285 286.514 42.0105 286.074 41.4175C285.063 40.1424 283.874 39.0221 282.544 38.0917C281.374 37.2805 280.298 36.3376 279.339 35.2811C278.642 34.3709 278.261 33.2552 278.253 32.1051C278.245 31.2379 278.466 30.3841 278.894 29.6318C279.322 28.8809 279.949 28.2647 280.705 27.8517C281.484 27.4196 282.361 27.197 283.25 27.2053C284.205 27.2052 285.143 27.4571 285.972 27.9361C287.038 28.628 287.95 29.5375 288.647 30.6061L286.966 31.8896C286.435 31.0825 285.765 30.3781 284.987 29.8098C284.449 29.483 283.832 29.3112 283.204 29.3132C282.831 29.2962 282.46 29.3545 282.11 29.4849C281.761 29.6152 281.441 29.8149 281.169 30.0721C280.916 30.3122 280.715 30.6028 280.579 30.9253C280.443 31.2479 280.375 31.5954 280.38 31.9458C280.379 32.3981 280.474 32.8452 280.658 33.2574C280.917 33.7759 281.262 34.2451 281.68 34.644C281.95 34.9063 282.832 35.5809 284.337 36.7145C285.749 37.6783 286.989 38.8756 288.006 40.2558C288.628 41.1775 288.973 42.2608 289 43.3756C289.003 44.1131 288.853 44.8432 288.56 45.5191C288.268 46.195 287.838 46.8019 287.3 47.301C286.756 47.843 286.11 48.2698 285.4 48.5562C284.69 48.8426 283.931 48.9828 283.166 48.9686C281.958 48.9861 280.772 48.6333 279.767 47.9568C278.574 47.0917 277.608 45.9471 276.952 44.6216Z" fill="#15234A"/>
<path d="M172.238 51.9387H176.344C177.935 51.8824 179.528 51.9859 181.099 52.2479C182.23 52.5107 183.242 53.1431 183.979 54.0467C184.75 55.0163 185.149 56.2335 185.103 57.4756C185.149 58.7102 184.761 59.9214 184.007 60.8952C183.235 61.8237 182.174 62.4611 180.997 62.7033C179.271 63.0011 177.518 63.1172 175.768 63.0499H174.272V72.6996H172.21L172.238 51.9387ZM174.272 53.9717V61.017H177.755C178.801 61.0634 179.846 60.9336 180.849 60.6328C181.481 60.3881 182.02 59.9488 182.391 59.3774C182.762 58.8004 182.955 58.1258 182.948 57.4381C182.948 56.7721 182.754 56.1207 182.391 55.5644C182.037 55.0084 181.521 54.5765 180.914 54.3277C179.938 54.0384 178.92 53.9149 177.904 53.9624L174.272 53.9717Z" fill="#15234A"/>
<path d="M195.878 51.9375L205.483 72.6984H203.254L200.021 65.8687H191.15L187.946 72.6984H185.651L195.377 51.9375H195.878ZM195.637 56.3501L192.107 63.845H199.148L195.637 56.3501Z" fill="#15234A"/>
<path d="M208.781 51.9376H212.877C214.431 51.8905 215.985 51.9845 217.522 52.2186C218.69 52.4693 219.74 53.1095 220.503 54.0361C221.277 55.0052 221.683 56.2213 221.646 57.4651C221.667 58.5134 221.393 59.5463 220.856 60.4443C220.321 61.3105 219.532 61.9881 218.599 62.3836C217.305 62.8837 215.924 63.1132 214.54 63.0581L221.971 72.6985H219.426L211.995 63.0581H210.834V72.6985H208.771L208.781 51.9376ZM210.843 53.9706V61.0252H214.382C215.416 61.073 216.45 60.9399 217.438 60.6317C218.074 60.389 218.615 59.9453 218.98 59.3669C219.344 58.7872 219.535 58.1138 219.528 57.4276C219.528 56.7615 219.334 56.1101 218.971 55.5539C218.616 55.0032 218.099 54.5776 217.494 54.3359C216.512 54.042 215.488 53.9185 214.466 53.9706H210.843Z" fill="#15234A"/>
<path d="M226.067 51.9375H228.148V59.7322L236.378 51.9375H239.165L229.281 61.2499L239.936 72.6984H237.149L228.148 63.03V72.6984H226.049L226.067 51.9375Z" fill="#15234A"/>
<path d="M165.085 27.6465H164.296V72.7471H165.085V27.6465Z" fill="#15234A"/>
<path d="M11.2051 27.6465H15.8496L26.7083 44.51V27.6465H31.5479V53.2322H26.9034L16.0353 36.453V53.2322H11.2051V27.6465Z" fill="#15234A"/>
<path d="M42.7866 27.6465H47.6912L57.4539 53.2322H52.4286L50.45 47.9858H40.0836L38.0214 53.2322H32.9961L42.7866 27.6465ZM45.2668 34.4387L41.8578 43.2265H48.6573L45.2668 34.4387Z" fill="#15234A"/>
<path d="M54.9932 27.6465H59.9628L66.3535 45.8404L72.8372 27.6465H77.7975L68.6479 53.2322H64.0034L54.9932 27.6465Z" fill="#15234A"/>
<path d="M80.8066 27.6465H94.6658V32.4151H85.5997V37.0432H94.6658V41.7275H85.5997V48.473H94.6658V53.2322H80.8066V27.6465Z" fill="#15234A"/>
<path d="M97.3779 27.6465H111.414V32.4526H106.769V53.2322H101.864V32.4526H97.3779V27.6465Z" fill="#15234A"/>
<path d="M113.894 27.6465H127.762V32.4151H118.696V37.0432H127.762V41.7275H118.696V48.473H127.762V53.2322H113.894V27.6465Z" fill="#15234A"/>
<path d="M154.681 32.1424L151.3 35.4308C150.344 34.2878 149.158 33.3627 147.821 32.7167C146.484 32.0706 145.026 31.7184 143.544 31.6833C141.285 31.6558 139.108 32.5331 137.491 34.1227C135.873 35.7122 134.946 37.8842 134.914 40.162V40.3774C134.886 41.9661 135.267 43.5349 136.02 44.9306C136.745 46.2484 137.828 47.3305 139.141 48.0504C140.516 48.8082 142.061 49.1955 143.628 49.1746C144.95 49.1915 146.261 48.9231 147.473 48.3876C148.906 47.6583 150.201 46.6817 151.3 45.5021L154.579 48.9497C153.053 50.5441 151.253 51.8456 149.266 52.7909C147.453 53.5325 145.509 53.8958 143.553 53.8589C141.769 53.9324 139.989 53.638 138.321 52.9937C136.654 52.3493 135.134 51.3686 133.856 50.1115C132.603 48.8395 131.621 47.322 130.973 45.6526C130.324 43.9832 130.022 42.1974 130.084 40.4055C130.038 38.0087 130.632 35.6434 131.803 33.5571C132.983 31.5402 134.684 29.8853 136.726 28.7697C138.83 27.5807 141.207 26.9701 143.618 26.999C145.72 27.0074 147.795 27.471 149.704 28.3584C151.613 29.2457 153.31 30.5362 154.681 32.1424Z" fill="#15234A"/>
<path d="M157.896 56.4824H8V58.0751H157.896V56.4824Z" fill="#15234A"/>
<path d="M60.9934 62.8537L59.405 64.2684C59.2337 63.9488 58.9892 63.675 58.692 63.4697C58.3947 63.2644 58.0533 63.1335 57.6959 63.0879C57.4433 63.0788 57.1959 63.162 56.9992 63.3221C56.9185 63.3818 56.8523 63.4592 56.8056 63.5485C56.7589 63.6377 56.733 63.7365 56.7298 63.8374C56.7364 64.0347 56.8047 64.2249 56.9249 64.3808C57.4173 64.9041 57.9449 65.3924 58.504 65.8423C59.3214 66.5356 59.823 66.9665 59.9902 67.1539C60.3721 67.5163 60.6866 67.9447 60.9191 68.4187C61.1037 68.8374 61.1986 69.2907 61.1978 69.749C61.2151 70.1792 61.1412 70.6081 60.981 71.0072C60.8208 71.4062 60.578 71.7662 60.2689 72.0631C59.9344 72.3779 59.5413 72.6228 59.1125 72.7836C58.6836 72.9444 58.2274 73.0179 57.7702 72.9999C57.0235 73.0184 56.2887 72.8094 55.6616 72.4003C54.9941 71.9249 54.4649 71.2779 54.1289 70.5266L55.9867 69.4305C56.5255 70.4329 57.1571 70.9388 57.8445 70.9388C58.1836 70.9489 58.5145 70.8321 58.7734 70.6109C58.8887 70.5237 58.9824 70.4105 59.0469 70.2804C59.1114 70.1503 59.1449 70.0069 59.1449 69.8614C59.1376 69.5787 59.0399 69.306 58.8663 69.0838C58.485 68.6525 58.0652 68.2573 57.6123 67.9034C56.7169 67.233 55.9141 66.4454 55.225 65.5612C54.8915 65.0755 54.7044 64.5029 54.6862 63.9124C54.6872 63.5261 54.7707 63.1446 54.931 62.7937C55.0912 62.4429 55.3246 62.131 55.6151 61.8794C56.2145 61.3177 57.0081 61.0151 57.8259 61.0362C58.3853 61.0339 58.9368 61.1689 59.4329 61.4297C60.0346 61.8047 60.5635 62.2873 60.9934 62.8537Z" fill="#15234A"/>
<path d="M67.254 61.3066H69.4369L73.7748 72.6895H71.5455L70.6166 70.3474H65.9721L65.0432 72.6895H62.8975L67.254 61.3066ZM68.3779 64.3233L66.8453 68.2207H69.8642L68.3779 64.3233Z" fill="#15234A"/>
<path d="M76.0137 61.3066H78.0758L82.9061 68.8015V61.3066H85.0983V72.6895H82.9897L78.1594 65.1946V72.6895H76.0137V61.3066Z" fill="#15234A"/>
<path d="M87.0859 61.3066H93.3281V63.4427H91.2753V72.6895H89.0924V63.4427H87.0859V61.3066Z" fill="#15234A"/>
<path d="M98.8185 61.3066H100.992L105.339 72.6895H103.101L102.218 70.3474H97.5738L96.6449 72.6895H94.3877L98.8185 61.3066ZM99.9611 64.3233L98.4005 68.2207H101.429L99.9611 64.3233Z" fill="#15234A"/>
<path d="M112.677 61.3069H114.953C115.852 61.2651 116.752 61.3857 117.609 61.6629C118.144 61.8818 118.592 62.274 118.882 62.7778C119.216 63.3434 119.384 63.9934 119.365 64.6515C119.384 65.3162 119.199 65.9705 118.835 66.5252C118.43 67.0649 117.868 67.4642 117.228 67.6682L119.904 72.7273H117.609L115.064 67.9024H114.823V72.7273H112.677V61.3069ZM114.823 65.757H115.501C115.987 65.7925 116.474 65.6989 116.913 65.4853C117.051 65.3754 117.158 65.2315 117.225 65.0673C117.292 64.9032 117.315 64.7245 117.293 64.5485C117.302 64.3155 117.237 64.0858 117.108 63.8927C116.979 63.7137 116.802 63.5769 116.597 63.4992C116.211 63.4022 115.814 63.3612 115.417 63.3774H114.823V65.757Z" fill="#15234A"/>
<path d="M127.549 61.0161C128.317 61.0061 129.079 61.1566 129.788 61.4581C130.496 61.7596 131.135 62.2056 131.664 62.768C132.763 63.9023 133.379 65.4257 133.379 67.012C133.379 68.5984 132.763 70.1217 131.664 71.256C131.115 71.8112 130.464 72.2518 129.747 72.5524C129.029 72.853 128.26 73.0077 127.484 73.0077C126.707 73.0077 125.938 72.853 125.22 72.5524C124.503 72.2518 123.852 71.8112 123.303 71.256C122.4 70.3122 121.822 69.1002 121.655 67.7993C121.488 66.4984 121.74 65.1778 122.375 64.0328C122.888 63.1297 123.632 62.3822 124.53 61.8686C125.436 61.3028 126.483 61.0072 127.549 61.0161ZM127.549 63.1334C127.058 63.1245 126.572 63.2182 126.119 63.4085C125.667 63.5987 125.258 63.8815 124.92 64.2389C124.559 64.6075 124.277 65.0475 124.094 65.5313C123.91 66.015 123.827 66.532 123.852 67.0495C123.827 67.6184 123.936 68.1851 124.168 68.7041C124.401 69.2231 124.75 69.68 125.189 70.0381C125.863 70.6009 126.711 70.9061 127.586 70.9C128.074 70.9068 128.558 70.8112 129.007 70.6192C129.456 70.4273 129.861 70.1433 130.196 69.7851C130.889 69.0401 131.274 68.0569 131.274 67.0354C131.274 66.0139 130.889 65.0308 130.196 64.2857C129.856 63.9144 129.441 63.6198 128.98 63.4212C128.519 63.2226 128.022 63.1245 127.521 63.1334H127.549Z" fill="#15234A"/>
<path d="M141.91 62.8537L140.322 64.2684C140.15 63.9488 139.906 63.675 139.608 63.4697C139.311 63.2644 138.97 63.1335 138.612 63.0879C138.363 63.0794 138.118 63.1626 137.925 63.3221C137.843 63.3802 137.775 63.4573 137.728 63.5469C137.682 63.6365 137.657 63.7361 137.656 63.8374C137.66 64.0337 137.725 64.2238 137.841 64.3808C138.334 64.9041 138.861 65.3924 139.42 65.8423C140.238 66.5356 140.74 66.9665 140.916 67.1539C141.296 67.5182 141.61 67.9461 141.845 68.4187C142.029 68.8374 142.124 69.2907 142.124 69.749C142.141 70.1792 142.067 70.6081 141.907 71.0072C141.747 71.4062 141.504 71.7662 141.195 72.0631C140.86 72.3779 140.467 72.6228 140.038 72.7836C139.609 72.9444 139.153 73.0179 138.696 72.9999C137.949 73.0184 137.214 72.8094 136.587 72.4003C135.92 71.9249 135.391 71.2779 135.055 70.5266L136.912 69.4305C137.451 70.4329 138.083 70.9388 138.77 70.9388C139.109 70.9489 139.44 70.8321 139.699 70.6109C139.815 70.5237 139.908 70.4105 139.973 70.2804C140.037 70.1503 140.071 70.0069 140.071 69.8614C140.063 69.5787 139.966 69.306 139.792 69.0838C139.411 68.6525 138.991 68.2573 138.538 67.9034C137.643 67.233 136.84 66.4454 136.151 65.5612C135.817 65.0755 135.63 64.5029 135.612 63.9124C135.613 63.5261 135.696 63.1446 135.857 62.7937C136.017 62.4429 136.25 62.131 136.541 61.8794C137.14 61.3177 137.934 61.0151 138.752 61.0362C139.311 61.0339 139.863 61.1689 140.359 61.4297C140.958 61.8047 141.483 62.2874 141.91 62.8537Z" fill="#15234A"/>
<path d="M148.17 61.3066H150.353L154.691 72.6895H152.462L151.533 70.3474H146.888L145.959 72.6895H143.721L148.17 61.3066ZM149.275 64.3233L147.761 68.2207H150.78L149.275 64.3233Z" fill="#15234A"/>
</g>
<defs>
<clipPath id="clip0_221_802">
<rect width="281" height="46" fill="white" transform="translate(8 27)"/>
</clipPath>
</defs>
</svg>
