<svg width="380" height="100" viewBox="0 0 380 100" fill="none" xmlns="http://www.w3.org/2000/svg">
<g clip-path="url(#clip0_1311_150)">
<path d="M66.0334 25.3459L100.996 60.3548L76.3656 85.0178L66.9403 75.58L68.3808 74.1376L76.0811 81.8481L76.3834 82.1508L76.6857 81.8481L97.848 60.6576L98.1503 60.3548L97.848 60.0521L66.3179 28.5156L66.0156 28.2129L65.7133 28.5156L45.1734 49.0117L43.7329 47.5693L65.9978 25.3281" fill="#002856"/>
<path d="M40.4608 50.8638L41.9013 52.3062L34.1655 60.0523L33.8631 60.355L34.1655 60.6577L55.3278 81.8483L55.6301 82.151L55.9324 81.8483L86.8401 50.8994L88.2806 52.3418L55.6479 85.0179L31 60.3372L40.4608 50.8638Z" fill="#002856"/>
<path d="M66.0335 15L95.7852 44.7914L91.5527 49.0295L90.1123 47.5871L92.602 45.0941L92.9043 44.7914L92.602 44.4887L66.318 18.1697L66.0157 17.867L65.7134 18.1697L39.4116 44.5065L39.1093 44.8092L39.4116 45.1119L65.0554 70.8433L63.6149 72.2857L36.2639 44.7914L66.0335 15Z" fill="#002856"/>
<path d="M66.0333 35.7451L69.9991 39.7161L66.0333 43.6871L62.0676 39.7161L66.0333 35.7451Z" fill="#002856"/>
<path d="M113.889 35.3536V35.1221H120.362C121.447 35.1221 122.389 35.2645 123.225 35.5672C124.043 35.87 124.737 36.2617 125.288 36.7781C125.839 37.2945 126.248 37.8644 126.515 38.5054C126.782 39.1465 126.924 39.8232 126.924 40.5176C126.924 41.2121 126.799 41.871 126.551 42.512C126.302 43.1531 125.893 43.7229 125.359 44.2215C124.808 44.7201 124.096 45.1119 123.225 45.4146C122.336 45.7173 121.322 45.8598 120.166 45.8598C119.793 45.8598 119.099 45.8064 118.05 45.6995V52.5197C118.05 53.9264 118.761 54.6565 120.202 54.6922V54.9058H113.924V54.6922C114.547 54.6922 115.045 54.4963 115.436 54.1579C115.827 53.8196 116.023 53.2676 116.023 52.5197V37.5795C116.023 37.1165 115.952 36.7425 115.809 36.4398C115.667 36.1371 115.507 35.9234 115.311 35.7809C115.116 35.6563 114.902 35.5494 114.671 35.496C114.44 35.4248 114.28 35.3892 114.191 35.3714H113.924L113.889 35.3536ZM118.032 35.8344V45.1475C118.726 45.2722 119.402 45.3434 120.06 45.3434C121.34 45.3434 122.425 45.0229 123.314 44.364C124.203 43.7051 124.648 42.4942 124.648 40.7135C124.648 39.2533 124.256 38.0424 123.474 37.0987C122.691 36.1549 121.5 35.6919 119.917 35.6919C119.295 35.6919 118.672 35.7453 118.032 35.87V35.8344Z" fill="#002856"/>
<path d="M150.754 45.0231C150.754 46.875 150.292 48.6023 149.385 50.1872C148.478 51.772 147.215 53.0541 145.65 53.9801C144.067 54.9239 142.325 55.3869 140.404 55.3869C138.483 55.3869 136.705 54.9239 135.104 53.9801C133.504 53.0363 132.224 51.772 131.317 50.1694C130.41 48.5667 129.929 46.8216 129.929 44.9341C129.929 43.4917 130.196 42.1205 130.747 40.8562C131.299 39.5741 132.063 38.4701 133.059 37.5263C134.037 36.5825 135.176 35.8524 136.438 35.3182C137.701 34.8018 139.017 34.5347 140.404 34.5347C141.791 34.5347 143.054 34.784 144.281 35.2826C145.526 35.7812 146.628 36.4935 147.624 37.4372C148.602 38.381 149.385 39.4851 149.954 40.785C150.523 42.0671 150.789 43.4917 150.789 45.0231H150.754ZM148.406 45.0765C148.406 42.4411 147.944 40.3932 147.019 38.9152C146.095 37.4372 145.028 36.44 143.801 35.9236C142.591 35.425 141.435 35.1579 140.368 35.1579C139.533 35.1579 138.679 35.3004 137.79 35.5675C136.901 35.8346 136.029 36.3332 135.193 37.0633C134.358 37.7934 133.664 38.8084 133.113 40.1261C132.561 41.4438 132.295 43.0643 132.295 44.9875C132.295 46.6792 132.526 48.175 132.97 49.4393C133.415 50.7036 134.037 51.7364 134.838 52.5377C135.638 53.339 136.492 53.9089 137.452 54.265C138.394 54.6212 139.39 54.7992 140.422 54.7992C141.346 54.7992 142.271 54.639 143.214 54.3184C144.156 53.9979 145.01 53.4637 145.792 52.7158C146.575 51.9857 147.215 50.9707 147.695 49.7064C148.175 48.4421 148.424 46.8928 148.424 45.0765H148.406Z" fill="#002856"/>
<path d="M154.186 35.407H153.919V35.1221H160.748C161.851 35.1221 162.776 35.3001 163.54 35.6385C164.305 35.9768 164.892 36.4042 165.319 36.9384C165.745 37.4548 166.048 38.0068 166.226 38.5945C166.403 39.1821 166.492 39.7519 166.492 40.304C166.492 41.0162 166.35 41.7107 166.048 42.3696C165.745 43.0285 165.283 43.5983 164.661 44.0613C164.038 44.5421 163.273 44.8626 162.331 45.0229V45.0763C163.505 45.6461 164.607 46.7858 165.603 48.4774L167.381 51.4869C168.182 52.8402 168.822 53.695 169.32 54.0511C169.818 54.4072 170.28 54.6031 170.76 54.6565V54.8702H167.168C167.008 54.6743 166.866 54.4785 166.741 54.3004C166.599 54.1223 166.457 53.9264 166.314 53.7128C166.226 53.5703 166.101 53.3744 165.923 53.1073C165.745 52.8402 165.639 52.6799 165.603 52.6443L163.238 48.7446C162.758 47.9432 162.278 47.3022 161.78 46.8036C161.282 46.305 160.819 45.9488 160.393 45.7351C159.966 45.5215 159.575 45.379 159.237 45.3256C158.899 45.2722 158.49 45.2365 158.027 45.2365V52.4663C158.027 53.873 158.739 54.6031 160.161 54.6387V54.8524H153.884V54.6387C154.275 54.6387 154.631 54.5497 154.933 54.425C155.235 54.3004 155.484 54.0689 155.698 53.7484C155.893 53.4278 156 53.0005 156 52.4663V37.526C156 36.7425 155.804 36.1905 155.431 35.87C155.04 35.5494 154.631 35.3892 154.168 35.3892L154.186 35.407ZM158.063 44.7557H159.183C160.357 44.7557 161.335 44.5777 162.082 44.2393C162.829 43.901 163.38 43.4202 163.718 42.7792C164.056 42.1559 164.234 41.3724 164.234 40.4642C164.234 39.6985 164.074 38.9684 163.771 38.2383C163.469 37.5082 162.953 36.9028 162.224 36.4042C161.495 35.9056 160.517 35.6563 159.29 35.6563C158.792 35.6563 158.383 35.6919 158.063 35.7809V44.7557Z" fill="#002856"/>
<path d="M198.378 34.1606C197.898 34.8195 197.24 35.14 196.404 35.14H172.877C172.556 35.14 172.29 35.14 172.059 35.0866C171.827 35.051 171.632 34.9976 171.454 34.9264C171.276 34.8551 171.152 34.7661 171.045 34.6592C170.938 34.5524 170.814 34.3921 170.671 34.1606H170.458V38.9864H170.671C170.778 37.7043 171.152 36.8673 171.81 36.4934C172.468 36.1194 173.25 35.9236 174.21 35.9236H178.14V52.5198C178.14 53.3034 177.945 53.8554 177.536 54.1759C177.127 54.4964 176.629 54.6745 176.042 54.6923V54.906H182.32V54.6923C180.897 54.6567 180.168 53.9266 180.168 52.5198V35.9236H188.882V52.5198C188.882 53.3034 188.686 53.8554 188.277 54.1759C187.868 54.4964 187.37 54.6745 186.783 54.6923V54.906H193.061V54.6923C191.638 54.6567 190.909 53.9266 190.909 52.5198V35.9236H194.839C195.799 35.9236 196.6 36.1194 197.258 36.4934C197.916 36.8673 198.289 37.7043 198.378 38.9864H198.591V34.1606H198.378Z" fill="#002856"/>
<path d="M221.407 45.0231C221.407 46.875 220.945 48.6023 220.038 50.1872C219.131 51.772 217.869 53.0541 216.304 53.9801C214.721 54.9239 212.978 55.3869 211.057 55.3869C209.137 55.3869 207.359 54.9239 205.758 53.9801C204.157 53.0363 202.877 51.772 201.97 50.1694C201.045 48.5667 200.583 46.8216 200.583 44.9341C200.583 43.4917 200.85 42.1205 201.401 40.8562C201.952 39.5741 202.717 38.4701 203.713 37.5263C204.691 36.5825 205.829 35.8524 207.092 35.3182C208.354 34.8018 209.67 34.5347 211.057 34.5347C212.445 34.5347 213.707 34.784 214.934 35.2826C216.179 35.7812 217.282 36.4935 218.278 37.4372C219.256 38.381 220.038 39.4851 220.607 40.785C221.176 42.0671 221.443 43.4917 221.443 45.0231H221.407ZM219.06 45.0765C219.06 42.4411 218.598 40.3932 217.673 38.9152C216.748 37.4372 215.681 36.44 214.454 35.9236C213.245 35.425 212.089 35.1579 211.022 35.1579C210.186 35.1579 209.332 35.3004 208.443 35.5675C207.554 35.8346 206.683 36.3332 205.847 37.0633C205.011 37.7934 204.318 38.8084 203.766 40.1261C203.215 41.4438 202.948 43.0643 202.948 44.9875C202.948 46.6792 203.179 48.175 203.624 49.4393C204.069 50.7036 204.691 51.7364 205.491 52.5377C206.274 53.339 207.145 53.9089 208.105 54.265C209.048 54.6212 210.044 54.7992 211.075 54.7992C212 54.7992 212.925 54.639 213.867 54.3184C214.81 53.9979 215.663 53.4637 216.446 52.7158C217.228 51.9857 217.869 50.9707 218.349 49.7064C218.829 48.4421 219.078 46.8928 219.078 45.0765H219.06Z" fill="#002856"/>
<path d="M241.894 54.8883H234.514V54.6746H234.781C235.279 54.6746 235.705 54.4965 236.079 54.1404C236.435 53.7842 236.63 53.2322 236.63 52.5021V37.5975C236.63 36.8852 236.47 36.351 236.132 35.9593C235.794 35.5675 235.35 35.3716 234.781 35.3716H234.532V35.1401H240.969C241.823 35.1401 242.605 35.2648 243.317 35.5141C244.028 35.7634 244.633 36.1017 245.131 36.5291C245.629 36.9565 246.002 37.4551 246.269 38.0071C246.536 38.5591 246.678 39.1468 246.678 39.8056C246.678 40.9987 246.287 41.9603 245.522 42.7082C244.757 43.4561 243.726 43.9903 242.428 44.3464V44.3999C243.014 44.4711 243.583 44.5601 244.135 44.6848C244.686 44.8094 245.166 44.9875 245.611 45.2012C246.055 45.4327 246.464 45.7176 246.838 46.0737C247.194 46.3943 247.478 46.7504 247.727 47.1422C247.976 47.5339 248.154 47.9435 248.278 48.3887C248.403 48.8339 248.474 49.2968 248.474 49.7776C248.474 50.8105 248.207 51.683 247.674 52.4309C247.14 53.1788 246.536 53.7308 245.878 54.1226C244.917 54.6568 243.601 54.9061 241.93 54.9061L241.894 54.8883ZM238.657 44.204H239.938C240.987 44.204 241.734 44.0971 242.196 43.8835C242.481 43.741 242.783 43.5451 243.086 43.2958C243.388 43.0465 243.69 42.6548 243.975 42.1205C244.259 41.5863 244.402 40.9275 244.402 40.1796C244.402 39.5919 244.313 39.0221 244.117 38.5057C243.921 37.9715 243.655 37.5085 243.299 37.0989C242.943 36.6894 242.516 36.3688 242.019 36.1373C241.521 35.9058 240.987 35.7812 240.418 35.7812C239.902 35.7812 239.315 35.888 238.657 36.0839V44.2396V44.204ZM240.685 44.8094H238.657V51.9323C238.657 52.4131 238.711 52.8049 238.8 53.1254C238.889 53.4459 239.155 53.713 239.564 53.9445C239.991 54.176 240.631 54.3007 241.503 54.3007C243.317 54.3007 244.597 53.6952 245.38 52.4843C245.913 51.6474 246.162 50.7214 246.162 49.6886C246.162 48.9407 246.038 48.264 245.771 47.6586C245.504 47.0531 245.148 46.5367 244.686 46.145C244.224 45.7532 243.655 45.4149 242.943 45.1834C242.25 44.9519 241.485 44.8272 240.667 44.8272L240.685 44.8094Z" fill="#002856"/>
<path d="M251.07 54.6746H251.337C251.817 54.6746 252.244 54.4787 252.617 54.1048C252.991 53.7308 253.169 53.1966 253.169 52.5021V37.5975C253.169 36.7784 252.955 36.2086 252.546 35.888C252.137 35.5675 251.639 35.3894 251.07 35.3716V35.1401H257.383V35.3716C256.832 35.3894 256.334 35.5497 255.907 35.8702C255.481 36.1908 255.267 36.7606 255.267 37.5975V52.0213C255.267 52.8761 255.481 53.4815 255.907 53.8021C256.334 54.1404 257.028 54.3007 258.006 54.3007H259.713C260.46 54.3007 261.047 54.2116 261.491 54.0335C261.936 53.8555 262.292 53.5884 262.541 53.2144C262.807 52.8405 263.056 52.3241 263.323 51.6652H263.554L262.807 54.9061H251.07V54.6924V54.6746Z" fill="#002856"/>
<path d="M274.509 34.8906L280.413 51.8074C280.733 52.68 281.018 53.3211 281.302 53.7128C281.587 54.1046 281.854 54.3539 282.103 54.4607C282.352 54.5676 282.672 54.6388 283.081 54.6744V54.8881H276.643V54.6744C277.301 54.6744 277.817 54.621 278.172 54.4785C278.528 54.3361 278.706 54.0155 278.706 53.4635C278.706 53.1608 278.617 52.7512 278.457 52.2348C278.421 52.1636 278.404 52.1102 278.404 52.0745L276.643 46.8392H269.814L268.249 51.7006C268.036 52.3595 267.929 52.8937 267.929 53.3032C267.929 53.8553 268.071 54.2292 268.338 54.4073C268.623 54.5854 269.014 54.6744 269.512 54.6744V54.8881H264.87V54.6744C265.528 54.621 266.062 54.3539 266.453 53.9087C266.844 53.4635 267.2 52.7868 267.485 51.8965L273.051 34.8906H274.491H274.509ZM270.028 46.127H276.305L273.086 36.7604H273.033L270.028 46.127Z" fill="#002856"/>
<path d="M305.577 35.1401V35.3716C305.079 35.4429 304.688 35.5319 304.385 35.6565C304.083 35.7812 303.87 36.0483 303.709 36.4223C303.549 36.7962 303.461 37.3482 303.461 38.0605V55.3869H303.318L288.167 38.4701V50.6146C288.167 51.6296 288.202 52.3775 288.291 52.8761C288.38 53.3747 288.487 53.713 288.647 53.9445C288.985 54.4075 289.554 54.6568 290.372 54.6924V54.9061H285.428V54.6924C285.979 54.6568 286.406 54.55 286.726 54.3363C287.029 54.1226 287.26 53.7486 287.384 53.1788C287.509 52.6268 287.58 51.772 287.58 50.6502V37.7578L286.922 37.0277C286.335 36.3688 285.873 35.9415 285.535 35.7812C285.179 35.6031 284.752 35.4785 284.237 35.3894V35.1579H287.953L302.874 51.8967V39.1468C302.874 38.1852 302.838 37.4729 302.767 36.9921C302.696 36.5113 302.482 36.1373 302.162 35.8524C301.842 35.5675 301.326 35.4072 300.633 35.3894V35.1579H305.595L305.577 35.1401Z" fill="#002856"/>
<path d="M326.028 39.5563H325.796C325.619 38.5947 325.174 37.7756 324.445 37.0989C323.716 36.4223 322.862 35.9415 321.902 35.6387C320.942 35.336 320.052 35.1758 319.217 35.1758C318.078 35.1758 317.011 35.4072 316.016 35.888C315.02 36.3688 314.166 37.0455 313.437 37.9181C312.708 38.7906 312.157 39.8412 311.748 41.0521C311.338 42.2808 311.143 43.5986 311.143 45.0231C311.143 46.4477 311.338 47.6942 311.73 48.8873C312.121 50.0804 312.69 51.0954 313.437 51.9679C314.184 52.8405 315.055 53.4993 316.033 53.9445C317.011 54.3897 318.096 54.6212 319.305 54.6212C320.301 54.6212 321.404 54.4253 322.595 54.0157C323.787 53.6062 324.872 52.9295 325.832 51.9857V52.7514C324.641 53.6774 323.556 54.3541 322.578 54.7815C321.6 55.2088 320.355 55.4225 318.896 55.4225C317.349 55.4225 315.927 55.1376 314.646 54.5678C313.366 53.9979 312.281 53.2322 311.392 52.2706C310.503 51.3091 309.845 50.2228 309.382 49.0119C308.92 47.801 308.707 46.5545 308.707 45.2902C308.707 43.3671 309.187 41.5863 310.129 39.9303C311.072 38.2742 312.352 36.9743 313.97 36.0127C315.589 35.0511 317.349 34.5703 319.234 34.5703C320.408 34.5703 321.653 34.7484 322.969 35.0867L324.356 35.4785C324.623 35.5319 324.854 35.5675 325.032 35.5675C325.387 35.5675 325.619 35.5141 325.725 35.4073C325.832 35.3004 325.939 35.1223 325.992 34.8552H326.205L326.01 39.5741L326.028 39.5563Z" fill="#002856"/>
<path d="M350 45.0231C350 46.875 349.538 48.6023 348.631 50.1872C347.724 51.772 346.461 53.0541 344.896 53.9801C343.313 54.9239 341.571 55.3869 339.65 55.3869C337.729 55.3869 335.951 54.9239 334.351 53.9801C332.75 53.0363 331.47 51.772 330.563 50.1694C329.638 48.5667 329.176 46.8216 329.176 44.9341C329.176 43.4917 329.442 42.1205 329.994 40.8562C330.545 39.5741 331.31 38.4701 332.305 37.5263C333.284 36.5825 334.422 35.8524 335.684 35.3182C336.947 34.8018 338.263 34.5347 339.65 34.5347C341.037 34.5347 342.3 34.784 343.527 35.2826C344.772 35.7812 345.874 36.4935 346.87 37.4372C347.848 38.381 348.631 39.4851 349.2 40.785C349.769 42.0849 350.036 43.4917 350.036 45.0231H350ZM347.653 45.0765C347.653 42.4411 347.19 40.3932 346.265 38.9152C345.341 37.4372 344.274 36.44 343.047 35.9236C341.837 35.425 340.681 35.1579 339.614 35.1579C338.779 35.1579 337.925 35.3004 337.036 35.5675C336.147 35.8346 335.275 36.3332 334.439 37.0633C333.604 37.7934 332.91 38.8084 332.359 40.1261C331.808 41.4438 331.541 43.0643 331.541 44.9875C331.541 46.6792 331.772 48.175 332.217 49.4393C332.661 50.7036 333.284 51.7364 334.084 52.5377C334.866 53.339 335.738 53.9089 336.698 54.265C337.64 54.6212 338.636 54.7992 339.668 54.7992C340.593 54.7992 341.517 54.639 342.46 54.3184C343.402 53.9979 344.256 53.4637 345.038 52.7158C345.821 51.9857 346.461 50.9707 346.941 49.7064C347.421 48.4421 347.67 46.8928 347.67 45.0765H347.653Z" fill="#002856"/>
<path d="M349.982 62.9902H116.77L113.906 65.8572H347.137L349.982 62.9902Z" fill="#00A6CE"/>
</g>
<defs>
<clipPath id="clip0_1311_150">
<rect width="319" height="70" fill="white" transform="translate(31 15)"/>
</clipPath>
</defs>
</svg>
