<svg width="380" height="100" viewBox="0 0 380 100" fill="none" xmlns="http://www.w3.org/2000/svg">
<path d="M20 76V23L46.5225 49.5133L20 76Z" fill="#F5B335"/>
<path d="M81.0284 64.4401C79.994 66.1635 78.4822 67.5687 76.44 68.6027C74.4242 69.6632 71.9577 70.167 69.0667 70.167C66.1757 70.167 63.6561 69.6897 61.4017 68.7087C59.1473 67.7278 57.3437 66.3491 55.9911 64.4931C54.6384 62.6637 53.8693 60.5162 53.6836 58.0769H62.2769C62.4626 59.7208 63.1257 61.0729 64.2396 62.16C65.3535 63.247 66.8653 63.8038 68.7219 63.8038C70.3928 63.8038 71.6924 63.3531 72.5942 62.4516C73.496 61.5502 73.9468 60.4101 73.9468 59.0049C73.9468 57.7588 73.5755 56.6982 72.8594 55.8763C72.1433 55.0544 71.215 54.3916 70.1011 53.9144C68.9871 53.4106 67.4753 52.8538 65.5127 52.191C62.993 51.3426 60.9243 50.5207 59.3329 49.6987C57.7416 48.8768 56.3624 47.6837 55.2485 46.1195C54.1345 44.5552 53.551 42.5137 53.551 39.9949C53.551 36.5217 54.7976 33.7908 57.2907 31.7758C59.7838 29.7608 63.0991 28.7798 67.2101 28.7798C71.3211 28.7798 74.8751 29.8138 77.4213 31.8553C79.9675 33.9234 81.3997 36.6542 81.7445 40.1009H73.0451C72.8064 38.6427 72.1964 37.4496 71.215 36.5217C70.2337 35.5937 68.881 35.1165 67.1571 35.1165C65.6718 35.1165 64.4783 35.5142 63.55 36.283C62.6482 37.0784 62.1708 38.192 62.1708 39.6767C62.1708 40.8698 62.5156 41.8508 63.2317 42.6197C63.9479 43.3886 64.8231 44.0514 65.9105 44.5287C66.9979 45.0324 68.4832 45.5892 70.3398 46.199C72.939 47.127 75.0343 47.9754 76.6521 48.7708C78.27 49.5662 79.6492 50.7593 80.7896 52.3766C81.9301 53.9674 82.5136 56.0619 82.5136 58.6602C82.5136 60.7283 82.0097 62.6107 80.9753 64.3606L81.0284 64.4401Z" fill="#3D7CC9"/>
<path d="M117.709 31.4578C120.786 33.2077 123.199 35.6734 124.976 38.802C126.753 41.9306 127.629 45.5098 127.629 49.4603C127.629 53.4108 126.753 56.9901 124.976 60.1452C123.199 63.3002 120.786 65.766 117.709 67.5159C114.632 69.2657 111.211 70.1407 107.445 70.1407C103.679 70.1407 100.257 69.2657 97.1807 67.5159C94.104 65.766 91.6905 63.3002 89.9135 60.1452C88.1365 56.9901 87.2612 53.4108 87.2612 49.4603C87.2612 45.5098 88.1365 41.9306 89.9135 38.802C91.6905 35.6469 94.104 33.2077 97.1807 31.4578C100.257 29.7079 103.679 28.833 107.445 28.833C111.211 28.833 114.632 29.7079 117.709 31.4578ZM101.212 37.874C99.4085 38.9346 98.0294 40.4723 96.995 42.4873C95.9871 44.4758 95.4832 46.8355 95.4832 49.4868C95.4832 52.1382 95.9871 54.4978 96.995 56.4863C98.0028 58.4748 99.4085 60.0126 101.212 61.0996C103.016 62.1602 105.084 62.6904 107.445 62.6904C109.805 62.6904 111.901 62.1602 113.678 61.0996C115.481 60.0391 116.86 58.5013 117.895 56.4863C118.903 54.4978 119.407 52.1382 119.407 49.4868C119.407 46.8355 118.903 44.4758 117.895 42.4873C116.887 40.4988 115.481 38.9611 113.678 37.874C111.874 36.8135 109.805 36.2832 107.445 36.2832C105.084 36.2832 102.989 36.8135 101.212 37.874Z" fill="#3D7CC9"/>
<path d="M141.791 63.5918H155.344V69.7693H133.729V29.3896H141.791V63.5918Z" fill="#3D7CC9"/>
<path d="M167.916 29.3896V53.066C167.916 56.2211 168.606 58.6073 170.011 60.1715C171.391 61.7623 173.406 62.5577 176.058 62.5577C178.711 62.5577 180.647 61.7623 182.026 60.1715C183.432 58.5807 184.121 56.2211 184.121 53.066V29.3896H192.131V53.066C192.131 56.8044 191.442 59.9594 190.036 62.5312C188.63 65.103 186.721 67.012 184.254 68.2846C181.787 69.5307 179.002 70.167 175.873 70.167C171.019 70.167 167.147 68.7088 164.256 65.8189C161.365 62.9289 159.906 58.6603 159.906 53.066V29.3896H167.916Z" fill="#3D7CC9"/>
<path d="M226.663 29.3896V35.8059H215.497V69.7693H207.435V35.8059H196.348V29.3896H226.663Z" fill="#3D7CC9"/>
<path d="M239.209 29.3896V69.7693H231.146V29.3896H239.209Z" fill="#3D7CC9"/>
<path d="M275.73 31.4578C278.807 33.2077 281.22 35.6734 282.997 38.802C284.774 41.9306 285.649 45.5098 285.649 49.4603C285.649 53.4108 284.774 56.9901 282.997 60.1452C281.22 63.3002 278.807 65.766 275.73 67.5159C272.653 69.2657 269.232 70.1407 265.466 70.1407C261.7 70.1407 258.278 69.2657 255.202 67.5159C252.125 65.766 249.711 63.3002 247.934 60.1452C246.157 56.9901 245.282 53.4108 245.282 49.4603C245.282 45.5098 246.157 41.9306 247.934 38.802C249.711 35.6469 252.125 33.2077 255.202 31.4578C258.278 29.7079 261.7 28.833 265.466 28.833C269.232 28.833 272.653 29.7079 275.73 31.4578ZM259.233 37.874C257.43 38.9346 256.05 40.4723 255.016 42.4873C254.008 44.4758 253.504 46.8355 253.504 49.4868C253.504 52.1382 254.008 54.4978 255.016 56.4863C256.024 58.4748 257.43 60.0126 259.233 61.0996C261.037 62.1602 263.105 62.6904 265.466 62.6904C267.826 62.6904 269.922 62.1602 271.699 61.0996C273.502 60.0391 274.881 58.5013 275.916 56.4863C276.95 54.4713 277.428 52.1382 277.428 49.4868C277.428 46.8355 276.924 44.4758 275.916 42.4873C274.908 40.4988 273.502 38.9611 271.699 37.874C269.895 36.8135 267.826 36.2832 265.466 36.2832C263.105 36.2832 261.01 36.8135 259.233 37.874Z" fill="#3D7CC9"/>
<path d="M325.937 69.7693H317.874L299.786 42.3281V69.7693H291.723V29.3896H299.786L317.874 57.0695V29.3896H325.937V69.7693Z" fill="#3D7CC9"/>
<path d="M359.462 64.4401C358.427 66.1635 356.916 67.5687 354.873 68.6027C352.858 69.6632 350.391 70.167 347.5 70.167C344.609 70.167 342.089 69.6897 339.835 68.7087C337.581 67.7278 335.777 66.3491 334.424 64.4931C333.072 62.6372 332.303 60.5162 332.117 58.0769H340.71C340.896 59.7208 341.559 61.0729 342.673 62.16C343.787 63.247 345.299 63.8038 347.155 63.8038C348.826 63.8038 350.126 63.3531 351.028 62.4516C351.929 61.5502 352.38 60.4101 352.38 59.0049C352.38 57.7588 352.009 56.6982 351.293 55.8763C350.577 55.0544 349.648 54.3916 348.534 53.9144C347.42 53.4106 345.909 52.8538 343.946 52.191C341.426 51.3426 339.358 50.5207 337.766 49.6987C336.175 48.8768 334.796 47.6837 333.682 46.1195C332.568 44.5552 331.984 42.5137 331.984 39.9949C331.984 36.5217 333.231 33.7908 335.724 31.7758C338.217 29.7608 341.532 28.7798 345.643 28.7798C349.754 28.7798 353.308 29.8138 355.855 31.8553C358.401 33.9234 359.833 36.6542 360.178 40.1009H351.478C351.24 38.6427 350.63 37.4496 349.648 36.5217C348.667 35.5937 347.314 35.1165 345.59 35.1165C344.105 35.1165 342.912 35.5142 341.983 36.283C341.082 37.0784 340.604 38.192 340.604 39.6767C340.604 40.8698 340.949 41.8508 341.665 42.6197C342.381 43.3886 343.256 44.0514 344.344 44.5287C345.431 45.0324 346.917 45.5892 348.773 46.199C351.372 47.127 353.468 47.9754 355.085 48.7708C356.703 49.5662 358.083 50.7593 359.223 52.3766C360.363 53.9674 360.947 56.0619 360.947 58.6602C360.947 60.7283 360.443 62.6107 359.409 64.3606L359.462 64.4401Z" fill="#3D7CC9"/>
</svg>
